<?xml version="1.0" standalone="no"?>
<!DOCTYPE svg PUBLIC "-//W3C//DTD SVG 20010904//EN"
 "http://www.w3.org/TR/2001/REC-SVG-20010904/DTD/svg10.dtd">
<svg version="1.0" xmlns="http://www.w3.org/2000/svg"
 width="648.000000pt" height="648.000000pt" viewBox="0 0 648.000000 648.000000"
 preserveAspectRatio="xMidYMid meet">
<metadata>
Created by potrace 1.14, written by Peter Selinger 2001-2017
</metadata>
<g transform="translate(0.000000,648.000000) scale(0.100000,-0.100000)"
fill="#000000" stroke="none">
<path d="M4585 6465 c-426 -61 -793 -215 -1215 -511 -317 -222 -674 -498 -885
-684 l-121 -107 -160 -6 c-565 -21 -1073 -233 -1473 -612 -119 -113 -321 -367
-321 -404 0 -6 10 -13 22 -16 13 -3 250 -59 528 -125 278 -66 515 -122 527
-125 21 -5 22 -9 22 -135 0 -369 114 -699 354 -1018 83 -111 235 -266 335
-342 58 -43 72 -59 67 -75 -2 -11 -107 -414 -231 -895 -124 -481 -252 -974
-284 -1095 -31 -121 -55 -222 -53 -225 2 -2 368 360 813 805 l808 808 129 -36
c737 -209 1312 -151 1533 155 l27 37 398 -400 c220 -219 401 -399 404 -399 9
0 96 156 136 242 48 104 99 262 125 383 27 126 38 425 21 571 -35 294 -147
623 -306 895 l-45 76 30 129 c109 475 168 1131 148 1649 -16 436 -114 790
-293 1060 -142 213 -309 337 -524 386 -115 27 -377 34 -516 14z m460 -265
c119 -31 179 -62 249 -132 184 -185 295 -556 331 -1108 5 -83 5 -84 -12 -60
-10 13 -43 59 -73 101 -209 293 -496 532 -818 681 -239 111 -568 187 -817 188
l-70 1 70 44 c239 152 548 273 777 304 101 14 270 5 363 -19z m-1172 -625
c558 -65 973 -278 1330 -683 94 -107 205 -250 229 -297 8 -16 42 -82 76 -145
88 -168 122 -258 122 -330 0 -32 -9 -144 -20 -248 -61 -571 -214 -1076 -428
-1408 -42 -66 -52 -75 -58 -59 -44 127 -169 360 -285 530 -434 639 -1121 1106
-1859 1263 -230 49 -304 56 -585 57 -148 0 -303 -3 -343 -8 l-73 -7 50 73 c78
116 219 302 331 437 131 158 432 460 570 572 155 125 300 227 340 238 109 29
414 37 603 15z m-1158 -1609 c402 -74 796 -237 1175 -487 203 -134 332 -239
501 -408 253 -253 396 -473 460 -707 31 -113 25 -256 -14 -336 -52 -106 -145
-177 -287 -218 -107 -32 -342 -39 -500 -15 -183 26 -511 112 -510 133 1 4 23
36 50 71 26 35 67 101 89 146 l40 81 113 -29 c96 -25 133 -30 248 -31 125 -1
139 1 184 24 54 27 81 58 90 105 5 24 2 22 -16 -15 -55 -109 -225 -127 -506
-56 -51 13 -95 26 -98 29 -3 3 -3 15 1 27 6 18 12 21 36 16 40 -8 138 12 177
36 47 29 75 90 70 148 -11 107 -121 270 -266 396 -436 375 -1060 563 -1204
362 -36 -51 -33 -145 9 -220 l31 -57 -24 -15 c-22 -15 -25 -13 -105 72 -45 48
-68 69 -51 47 17 -22 53 -62 81 -90 28 -27 51 -53 51 -58 0 -5 -23 -34 -50
-64 -28 -30 -74 -91 -103 -135 l-52 -80 -140 144 c-207 213 -333 398 -391 576
-25 75 -29 102 -29 202 0 112 1 117 34 178 69 126 189 201 385 238 95 18 399
12 521 -10z m433 -1101 c135 -22 170 -44 260 -162 118 -153 128 -359 27 -518
-45 -70 -185 -223 -446 -486 -205 -206 -680 -668 -806 -783 l-52 -48 35 134
c234 890 402 1460 479 1623 57 120 192 222 325 244 78 12 75 12 178 -4z"/>
<path d="M4015 5255 c-135 -30 -236 -86 -326 -182 -296 -311 -129 -846 336
-1080 123 -63 217 -86 367 -91 126 -4 144 -2 230 22 119 35 187 74 269 156
110 109 159 229 159 390 0 361 -304 698 -705 781 -104 22 -242 23 -330 4z
m222 -271 c329 -68 599 -349 581 -602 -3 -37 -13 -85 -22 -106 l-17 -40 -37
65 c-50 88 -232 268 -346 343 -156 103 -352 183 -503 207 -115 17 -113 16 -70
54 99 86 245 114 414 79z"/>
</g>
</svg>
