<svg width="160" height="134" viewBox="0 0 160 134" fill="none" xmlns="http://www.w3.org/2000/svg">
<path d="M21.4473 72.6042C20.7768 68.9638 20.3936 65.2277 20.3936 61.3957C20.3936 28.5365 47.0258 2 79.7892 2C112.553 2 139.185 28.6323 139.185 61.3957C139.185 65.2277 138.802 68.9638 138.131 72.6042" stroke="black" stroke-width="3" stroke-miterlimit="10" stroke-linecap="round"/>
<path d="M54.3064 17.1364C57.4678 15.1246 60.8208 13.4002 64.3653 12.1548" stroke="black" stroke-width="3" stroke-miterlimit="10" stroke-linecap="round"/>
<path d="M33.1348 56.3181C33.1348 42.8104 38.8827 30.7396 47.9837 22.1177" stroke="black" stroke-width="3" stroke-miterlimit="10" stroke-linecap="round"/>
<path d="M138.035 111.786H21.5431C10.7178 111.786 2 103.068 2 92.2428C2 81.4175 10.7178 72.6997 21.5431 72.6997H138.035C148.861 72.6997 157.578 81.4175 157.578 92.2428C157.578 102.972 148.861 111.786 138.035 111.786Z" fill="#EF7028" stroke="black" stroke-width="3" stroke-miterlimit="10" stroke-linecap="round"/>
<path d="M113.99 100.961C118.857 100.961 122.803 97.0146 122.803 92.147C122.803 87.2795 118.857 83.3335 113.99 83.3335C109.122 83.3335 105.176 87.2795 105.176 92.147C105.176 97.0146 109.122 100.961 113.99 100.961Z" fill="white" stroke="black" stroke-width="3" stroke-miterlimit="10" stroke-linecap="round"/>
<path d="M79.7891 100.961C84.6567 100.961 88.6027 97.0146 88.6027 92.147C88.6027 87.2795 84.6567 83.3335 79.7891 83.3335C74.9216 83.3335 70.9756 87.2795 70.9756 92.147C70.9756 97.0146 74.9216 100.961 79.7891 100.961Z" fill="white" stroke="black" stroke-width="3" stroke-miterlimit="10" stroke-linecap="round"/>
<path d="M45.493 100.961C50.3606 100.961 54.3065 97.0146 54.3065 92.147C54.3065 87.2795 50.3606 83.3335 45.493 83.3335C40.6254 83.3335 36.6794 87.2795 36.6794 92.147C36.6794 97.0146 40.6254 100.961 45.493 100.961Z" fill="white" stroke="black" stroke-width="3" stroke-miterlimit="10" stroke-linecap="round"/>
<path d="M24.9918 111.786L15.8909 132" stroke="black" stroke-width="3" stroke-miterlimit="10" stroke-linecap="round"/>
<path d="M134.778 111.786L143.783 132" stroke="black" stroke-width="3" stroke-miterlimit="10" stroke-linecap="round"/>
</svg>
