<svg width="127" height="134" viewBox="0 0 127 134" fill="none" xmlns="http://www.w3.org/2000/svg">
<path d="M112.02 22.0358C112.835 22.2688 113.709 22.4144 114.582 22.4144C117.291 22.4144 119.882 21.3369 121.805 19.444C123.727 17.522 124.804 14.9301 124.804 12.2218C124.804 9.51344 123.727 6.9216 121.805 4.99955C119.882 3.07751 117.291 2 114.582 2C111.874 2 109.282 3.07751 107.36 4.99955C105.438 6.9216 104.361 9.51344 104.361 12.2218C104.361 13.0954 104.506 13.94 104.739 14.7845L97.9828 21.599C97.1674 22.4435 96.119 22.9969 94.9542 23.1425C93.7893 23.2881 92.6244 23.0551 91.6343 22.4435C83.2181 17.2307 73.5205 14.4642 63.5899 14.4642C53.6594 14.4642 43.9909 17.2307 35.5456 22.4435C34.5845 23.0551 33.4197 23.2881 32.2839 23.1716C31.1482 23.0551 30.0998 22.5309 29.2844 21.7155L22.4407 14.7845C23.1688 12.0179 23.1979 8.931 19.0917 4.91219C17.257 3.01927 14.7234 1.97088 12.0733 2.05824C9.56887 2.17473 7.18087 3.22312 5.40444 4.99955C3.62801 6.80511 2.57962 9.16398 2.43401 11.6976C2.34664 14.3477 3.39503 16.8813 5.31707 18.716C9.33589 22.8221 12.4228 22.793 15.1894 22.065L21.1302 28.0058C22.0039 28.8795 22.5572 30.0735 22.6155 31.3257C22.6737 32.578 22.2951 33.8011 21.5088 34.7912C14.0536 44.2267 10.0057 55.9046 10.0348 67.9028C10.0639 97.345 34.0021 132 63.5608 132C93.1195 132 117.087 97.3159 117.087 67.7572C117.087 55.7881 113.068 44.1393 105.613 34.7621C104.826 33.772 104.448 32.5488 104.506 31.2966C104.564 30.0444 105.118 28.8795 105.991 27.9767L112.02 22.0358Z" fill="#EF7028" stroke="black" stroke-width="3" stroke-miterlimit="10"/>
<path d="M27.9157 92.0735C21.9457 86.1035 18.3637 72.8239 24.3337 66.883C30.3037 60.9131 43.5541 64.5242 49.495 70.465C55.465 76.435 60.8525 91.491 54.9116 97.461C48.9417 103.402 33.7983 98.0143 27.9157 92.0735Z" fill="white" stroke="black" stroke-width="3" stroke-miterlimit="10"/>
<path d="M72.7051 115.517C70.3172 117.905 67.0555 119.274 63.6774 119.274C60.2992 119.274 57.0376 117.934 54.6496 115.517C53.6594 114.527 53.6594 112.896 54.6496 111.906C55.6397 110.916 57.2706 110.916 58.2607 111.906C59.7168 113.304 61.6388 114.061 63.6774 114.061C65.6868 114.061 67.6088 113.304 69.094 111.906C70.0842 110.916 71.715 110.916 72.7051 111.906C73.6953 112.925 73.6953 114.527 72.7051 115.517Z" fill="white" stroke="black" stroke-width="3" stroke-miterlimit="10"/>
<path d="M99.2642 92.0739C93.2943 98.0439 78.2382 103.402 72.2683 97.4615C66.2983 91.4915 71.6858 76.4355 77.6558 70.4655C83.6258 64.4955 96.7306 60.9135 102.788 66.8835C108.845 72.8244 105.147 86.133 99.2642 92.0739Z" fill="white" stroke="black" stroke-width="3" stroke-miterlimit="10"/>
</svg>
