<svg width="181" height="133" viewBox="0 0 181 133" fill="none" xmlns="http://www.w3.org/2000/svg">
<path d="M162.952 75.5632C171.665 75.5632 178.728 68.5001 178.728 59.7874C178.728 51.0748 171.665 44.0117 162.952 44.0117C154.24 44.0117 147.177 51.0748 147.177 59.7874C147.177 68.5001 154.24 75.5632 162.952 75.5632Z" fill="#EF7028" stroke="black" stroke-width="3" stroke-miterlimit="10"/>
<path d="M162.952 51.6665C167.412 51.6665 171.073 55.261 171.073 59.7873" stroke="black" stroke-width="3" stroke-miterlimit="10"/>
<path d="M91.3292 82.4857H85.3384V37.4883H91.3292C96.1884 37.4883 100.116 41.4156 100.116 46.2748V73.7658C100.116 78.5584 96.1884 82.4857 91.3292 82.4857Z" fill="#EF7028" stroke="black" stroke-width="3" stroke-miterlimit="10"/>
<path d="M99.8496 59.9868H147.243" stroke="black" stroke-width="3" stroke-miterlimit="10"/>
<path d="M136.66 50.4019V69.5724" stroke="black" stroke-width="3" stroke-miterlimit="10"/>
<path d="M123.546 50.4019V69.5724" stroke="black" stroke-width="3" stroke-miterlimit="10"/>
<path d="M110.433 50.4019V69.5724" stroke="black" stroke-width="3" stroke-miterlimit="10"/>
<path d="M12.5172 129.68C4.46288 126.285 0.735284 117.032 4.13006 108.978L18.9073 74.7642L47.5 87.5L33.2186 121.293C29.8239 129.347 20.5714 133.074 12.5172 129.68Z" stroke="black" stroke-width="3" stroke-miterlimit="10"/>
<path d="M69.8954 22.8441L15.3793 46.3413L11.5186 37.5548C10.1207 34.3597 11.5851 30.5655 14.7802 29.1677L51.7234 12.8594C59.578 9.46467 68.5641 14.3904 69.8954 22.8441Z" stroke="black" stroke-width="3" stroke-miterlimit="10"/>
<path d="M69.0968 96.3979L8.98925 70.4378C-0.329749 66.3774 -0.329749 53.1311 8.98925 49.1373L69.0968 23.1772C76.7517 19.849 85.2719 25.5069 85.2719 33.8275V85.7476C85.3385 94.0681 76.7517 99.6595 69.0968 96.3979Z" fill="#EF7028" stroke="black" stroke-width="3" stroke-miterlimit="10"/>
<path d="M18.6411 27.5036V9.19842C18.6411 4.07297 23.8331 0.611631 28.6258 2.54199L52.5889 12.5266" stroke="black" stroke-width="3" stroke-miterlimit="10"/>
<path d="M53.4542 75.5632C62.1669 75.5632 69.2299 68.5001 69.2299 59.7874C69.2299 51.0748 62.1669 44.0117 53.4542 44.0117C44.7415 44.0117 37.6785 51.0748 37.6785 59.7874C37.6785 68.5001 44.7415 75.5632 53.4542 75.5632Z" fill="white" stroke="black" stroke-width="3" stroke-miterlimit="10"/>
<path d="M53.4541 52.5317C57.448 52.5317 60.7096 55.7934 60.7096 59.7872" stroke="black" stroke-width="3" stroke-miterlimit="10"/>
<path d="M69.0967 96.3975C69.0967 96.3975 67.0332 122.757 35.5483 115.901" stroke="black" stroke-width="3" stroke-miterlimit="10"/>
<path d="M48 88C48 88 50.5 96 53 104.5" stroke="black" stroke-width="3" stroke-miterlimit="10"/>
</svg>
