<svg width="90" height="90" viewBox="0 0 90 90" fill="none" xmlns="http://www.w3.org/2000/svg">
<path d="M12.375 68.0398C9.45 69.1198 7.2 71.9548 5.04 77.3998L0 89.9998L12.645 84.9598C18.045 82.7998 20.925 80.5498 22.005 77.6248L22.365 76.5898L13.41 67.6348L12.375 68.0398Z" fill="#EF7028"/>
<path d="M13.14 57.2852C12.735 58.4102 12.375 59.5802 12.015 60.7052L11.7 61.6952L28.305 78.3002L29.295 77.9852C30.42 77.6252 31.59 77.2652 32.715 76.8602L35.28 75.9602L14.04 54.7202L13.14 57.2852Z" fill="#EF7028"/>
<path d="M89.37 2.025L89.19 0.81L87.975 0.63C85.185 0.18 82.35 0 79.515 0C76.14 0.045 72.765 0.36 69.48 0.99L65.295 1.8L68.85 4.095C75.645 8.505 81.45 14.31 85.86 21.105L88.155 24.66L88.965 20.475C90.135 14.4 90.315 8.145 89.37 2.025Z" fill="#EF7028"/>
<path d="M86.355 28.0801C81.09 17.5051 72.495 8.91008 61.92 3.64508L61.245 3.33008L60.57 3.60008C50.94 7.20008 41.985 13.4101 34.02 22.0951C26.37 30.5101 20.16 40.1851 15.705 50.7151L15.255 51.7501L38.25 74.7451L39.285 74.2951C49.77 69.8851 59.445 63.6751 67.905 55.9801C76.545 48.0151 82.755 39.0601 86.4 29.4301L86.67 28.7551L86.355 28.0801ZM70.38 32.3101C69.885 35.8201 67.815 38.9251 64.71 40.7251C61.65 42.5251 57.915 42.7951 54.675 41.4451C51.435 40.0951 48.96 37.3051 48.105 33.9301C47.205 30.5101 47.97 26.8651 50.13 24.0301C52.29 21.1951 55.665 19.5301 59.22 19.5301C62.235 19.5301 65.115 20.7001 67.23 22.8151C69.705 25.2451 70.875 28.8001 70.38 32.3101Z" fill="#EF7028"/>
<path d="M54.81 69.8851L57.42 68.2651V82.4851L45.585 87.3451L43.74 84.5551L46.125 82.1701C46.395 81.9001 46.575 81.4951 46.575 81.0901V74.4751L47.52 73.9801C49.995 72.7201 52.425 71.3701 54.81 69.8851Z" fill="#EF7028"/>
<path d="M8.86499 43.4252H15.48L15.975 42.4802C17.235 40.0052 18.63 37.5302 20.07 35.1452L21.69 32.5352H7.46999L2.60999 44.3702L5.39999 46.2152L7.78499 43.8302C8.09999 43.5602 8.45999 43.4252 8.86499 43.4252Z" fill="#EF7028"/>
</svg>
