<svg width="120" height="120" viewBox="0 0 120 120" fill="none" xmlns="http://www.w3.org/2000/svg">
<g clip-path="url(#clip0_82_136)">
<path d="M58.2789 102.88C67.2449 93.4401 76.531 83.6001 80.4537 73.8401C80.6938 73.2001 80.6938 72.4801 80.4537 71.8401C80.4537 71.8401 80.0534 72.0801 79.8933 72.1601L74.2896 74.4001C73.6491 74.6401 72.8486 74.4801 72.3683 74.0001C71.8879 73.5201 71.7278 72.7201 72.0481 72.0801C74.93 66.8001 79.0928 62.3201 84.1361 59.0401L85.1768 58.2401C87.0981 56.7201 89.8199 54.8801 92.3816 52.8801C100.067 47.4401 107.512 41.5201 114.556 35.2001C109.513 24.0801 101.187 14.8001 90.7805 8.56006C90.7805 8.56006 90.7805 9.04006 90.5404 9.20006C79.8132 20.0001 68.0454 29.7601 55.3969 38.2401C54.8366 38.6401 54.1161 38.6401 53.4757 38.2401C52.9153 37.8401 52.5951 37.2001 52.6751 36.5601L53.8759 27.6801C38.5857 41.5201 16.8913 62.8001 3.44232 77.2801C3.20216 77.3601 2.962 77.5201 2.64178 77.6001C5.68381 87.3601 11.2075 96.1601 18.5724 103.2C25.9373 110.24 35.0634 115.28 44.91 117.84C48.6725 113.12 53.3956 108.08 58.2789 102.88ZM29.2996 90.4001C28.1788 89.2801 27.4583 87.7601 27.3783 86.1601V85.6001V85.1201C25.9373 86.1601 24.4964 87.1201 22.7352 88.1601C20.4937 89.6001 18.1721 90.8801 15.7705 92.0001C16.491 89.4401 17.4517 86.8801 18.5724 84.4801C19.6131 82.0801 20.8139 79.7601 22.2549 77.6001C24.9767 73.1201 28.3389 68.9601 32.2615 65.3601C33.5424 64.1601 35.3036 63.5201 37.0647 63.6801C38.8259 63.7601 40.427 64.5601 41.6278 65.9201C42.7485 67.2801 43.389 68.9601 43.2288 70.7201C45.3102 69.4401 47.4717 68.2401 49.7132 67.2001C52.2749 65.9201 54.8366 64.8801 57.5584 64.0001C56.4376 66.6401 55.1568 69.1201 53.6358 71.5201C52.1948 73.8401 50.6738 76.1601 48.9927 78.3201C45.7906 82.6401 42.3483 86.7201 38.5057 90.4801C37.3049 91.6801 35.6238 92.4001 33.9427 92.4001C32.2615 92.2401 30.5804 91.6001 29.2996 90.4001Z" fill="#EF7028"/>
<path d="M55.3969 22.0001C55.9573 21.6001 56.7578 21.6001 57.3182 22.0001C57.9586 22.3201 58.3589 23.0401 58.1988 23.7601L56.8379 33.3601C68.1254 25.6001 78.6124 16.8001 88.2989 7.04007C74.6097 -0.239931 58.5991 -1.91993 43.7091 2.32007C28.8192 6.56007 16.0107 16.4001 8.16544 29.7601C0.400266 43.2001 -2.00134 59.1201 1.68112 74.1601C16.491 58.4801 39.9466 35.2001 55.3969 22.0001Z" fill="#EF7028"/>
<path d="M95.5837 98.4001L96.3042 97.2801C98.9459 93.6001 100.547 89.2801 100.947 84.8001V83.7601C100.867 82.8801 100.867 82.0001 100.947 81.0401C101.348 79.0401 102.148 77.2001 103.349 75.5201C106.791 71.6801 110.714 68.3201 115.117 65.6001C116.958 64.3201 118.799 63.0401 120.08 61.9201V59.8401C120.08 52.5601 118.719 45.3601 116.077 38.5601C110.474 43.8401 101.828 50.2401 94.6231 55.6001C91.9012 57.6001 89.4196 59.4401 87.4983 60.8801L86.4576 61.6801C83.4156 63.8401 80.6137 66.3201 78.1321 69.0401L78.9326 68.8001C79.7331 68.4001 80.6938 68.2401 81.6544 68.4001C82.6151 68.5601 83.4156 69.2001 83.8159 70.0001C84.4563 71.5201 84.4563 73.2801 83.8159 74.8801C79.6531 85.2801 70.2068 95.2801 60.9206 105.04C56.2775 109.68 52.1948 114.32 48.6724 118.88C52.4349 119.52 56.2775 119.84 60.1201 119.84C69.086 119.84 77.972 117.76 86.0574 113.84C87.4983 111.68 90.3802 107.12 95.5837 98.4001Z" fill="#EF7028"/>
<path d="M117.038 68.4801C113.035 71.0401 109.433 74.0001 106.231 77.5201C105.27 78.7201 104.63 80.0801 104.39 81.5201C104.31 82.1601 104.31 82.8801 104.39 83.5201C104.39 83.9201 104.39 84.3201 104.39 84.7201C104.069 89.9201 102.228 94.8801 99.1861 99.1201L98.5457 100.24C95.984 104.48 93.9026 107.92 92.2215 110.64C99.8266 105.84 106.311 99.4401 111.114 91.7601C115.917 84.1601 118.959 75.5201 120 66.5601L117.038 68.4801Z" fill="#EF7028"/>
</g>
<defs>
<clipPath id="clip0_82_136">
<rect width="120" height="120" fill="white"/>
</clipPath>
</defs>
</svg>
