<svg width="120" height="120" viewBox="0 0 120 120" fill="none" xmlns="http://www.w3.org/2000/svg">
<path d="M120 60.08C120 42.88 112.72 26.64 99.92 15.2C88.88 5.44 74.72 0 60 0C55.6 0 51.2 0.48 46.96 1.44C19.52 7.6 0 31.92 0 60C0 69.92 2.48 79.68 7.12 88.4C13.36 100 23.28 109.28 35.28 114.72C43.04 118.24 51.44 120 59.92 120C76.56 120 92.48 113.04 103.84 100.88C114.08 89.92 119.84 75.44 119.92 60.48C120 60.32 120 60.16 120 60.08ZM49.28 6.72C49.36 6.56 49.36 6.32 49.44 6.16C52.96 5.44 56.48 4.96 60 4.96C72.96 4.96 85.36 9.76 95.28 18.08C95.12 18.72 94.96 19.44 94.72 20.08C94.64 20.16 94.64 20.32 94.56 20.4C94 21.84 93.2 23.2 92.4 24.48C91.52 25.76 90.56 26.96 89.44 28.08C88.32 29.2 87.12 30.16 85.84 31.04C84.56 31.92 83.2 32.64 81.76 33.2C80.32 33.76 78.8 34.24 77.28 34.56C75.76 34.88 74.16 35.04 72.64 35.04C71.12 35.04 69.52 34.88 68 34.56C66.48 34.24 64.96 33.84 63.52 33.2C62.08 32.64 60.72 31.84 59.36 31.04C58.08 30.16 56.88 29.2 55.76 28.08C54.64 26.96 53.68 25.76 52.8 24.48C51.92 23.2 51.2 21.84 50.64 20.4C50.08 18.96 49.6 17.44 49.28 15.92C48.96 14.4 48.8 12.8 48.8 11.28C48.8 9.76 48.96 8.24 49.28 6.72ZM35.68 107.28C35.6 107.76 35.36 108.16 35.2 108.64C26.08 104 18.48 96.88 13.2 88.08C13.84 87.84 14.56 87.52 15.2 87.36C15.36 87.36 15.44 87.28 15.6 87.28H15.68C15.92 87.2 16.16 87.2 16.4 87.12H16.48C17.12 87.04 17.68 86.96 18.32 86.88C18.64 86.88 18.96 86.88 19.28 86.88C19.76 86.88 20.24 86.88 20.64 86.96C21.12 86.96 21.52 87.04 22 87.12C22.48 87.2 22.88 87.28 23.36 87.44C23.84 87.52 24.24 87.68 24.72 87.84C25.12 88 25.6 88.16 26 88.32C26.4 88.48 26.8 88.72 27.28 88.96C27.52 89.12 27.84 89.28 28.08 89.44C28.24 89.52 28.32 89.6 28.48 89.68C28.88 89.92 29.2 90.24 29.6 90.48C30 90.8 30.32 91.04 30.64 91.36C30.96 91.68 31.28 92 31.6 92.32C31.76 92.48 31.92 92.64 32.08 92.8C32.16 92.88 32.24 92.96 32.32 93.04C32.4 93.12 32.48 93.2 32.56 93.28L32.64 93.36C32.72 93.52 32.88 93.68 32.96 93.84C32.96 93.84 32.96 93.92 33.04 93.92C33.12 94.08 33.28 94.24 33.36 94.4C33.52 94.56 33.6 94.8 33.76 94.96C33.76 94.96 33.76 95.04 33.84 95.04C33.92 95.2 34.08 95.36 34.16 95.52V95.6C34.4 96 34.56 96.4 34.72 96.8C34.88 97.2 35.04 97.68 35.2 98.08C35.36 98.48 35.52 98.96 35.6 99.44C35.68 99.92 35.84 100.32 35.84 100.8C35.92 101.28 36 101.68 36 102.16C36 102.4 36 102.64 36.08 102.88C36.08 103.12 36.08 103.36 36.08 103.6C36.08 104.8 35.92 106.08 35.68 107.28ZM60 114.96C53.04 114.96 46.24 113.44 39.84 110.88C40.16 110.08 40.4 109.2 40.56 108.4C40.96 106.8 41.12 105.2 41.12 103.52C41.12 103.2 41.12 102.96 41.12 102.64C41.12 102.32 41.12 102.08 41.04 101.76C40.96 101.2 40.88 100.56 40.8 100C40.72 99.44 40.56 98.8 40.4 98.24C40.24 97.68 40.08 97.12 39.92 96.48C39.76 95.92 39.52 95.36 39.28 94.8C39.04 94.24 38.8 93.68 38.48 93.2C38.16 92.64 37.92 92.16 37.52 91.68C37.2 91.2 36.88 90.72 36.48 90.24C36.08 89.76 35.76 89.28 35.28 88.88C34.88 88.48 34.48 88 34 87.6C33.52 87.2 33.12 86.8 32.64 86.4C32.16 86 31.68 85.68 31.2 85.36C30.72 85.04 30.16 84.72 29.68 84.48C29.12 84.16 28.64 83.92 28.08 83.68C27.52 83.44 26.96 83.2 26.4 83.04C25.84 82.88 25.28 82.64 24.72 82.56C24.32 82.48 24 82.4 23.6 82.32C23.36 82.24 23.2 82.24 22.96 82.24C22.4 82.16 21.76 82.08 21.2 82C20.64 81.92 20 81.92 19.36 81.92C17.76 81.92 16.08 82.08 14.56 82.48C13.2 82.8 11.92 83.2 10.72 83.76C7.2 76.4 5.12 68.4 5.12 60.16C5.12 35.92 21.2 15.28 44.08 8.16C43.92 9.28 43.92 10.4 43.92 11.52C43.92 13.44 44.08 15.28 44.48 17.12C44.88 18.96 45.44 20.8 46.16 22.56C46.88 24.32 47.76 26 48.8 27.52C49.84 29.12 51.04 30.56 52.4 31.92C53.76 33.28 55.2 34.48 56.8 35.52C58.4 36.56 60.08 37.44 61.76 38.16C63.52 38.88 65.28 39.44 67.2 39.76C69.04 40.16 70.96 40.32 72.8 40.32C74.72 40.32 76.56 40.16 78.4 39.76C80.24 39.36 82.08 38.88 83.84 38.16C85.6 37.44 87.28 36.56 88.8 35.52C90.4 34.48 91.84 33.28 93.2 31.92C94.56 30.56 95.76 29.12 96.8 27.52C96.88 27.44 96.88 27.36 96.96 27.28C97.12 27.04 97.28 26.72 97.44 26.48C97.52 26.32 97.6 26.24 97.68 26.08C97.84 25.76 98 25.52 98.16 25.2C98.24 25.12 98.24 25.04 98.32 24.88C98.48 24.48 98.72 24.16 98.88 23.76C99.12 23.36 99.28 22.88 99.44 22.48C99.52 22.4 99.52 22.24 99.6 22.16C108.32 31.2 113.6 42.88 114.72 55.36C114.64 55.36 114.56 55.28 114.56 55.28C114.32 55.12 114.08 55.04 113.84 54.96C113.6 54.8 113.36 54.72 113.12 54.64C113.04 54.64 113.04 54.56 112.96 54.56C112.88 54.56 112.88 54.48 112.8 54.48C112.56 54.4 112.32 54.24 112 54.16C112 54.16 112 54.16 111.92 54.16C111.6 54.08 111.28 53.92 111.04 53.84C110.72 53.76 110.4 53.6 110.08 53.52C109.76 53.44 109.44 53.36 109.12 53.28C108.8 53.2 108.48 53.12 108.16 53.04C107.84 52.96 107.52 52.88 107.2 52.88C106.88 52.8 106.56 52.8 106.16 52.72C105.84 52.64 105.52 52.64 105.12 52.64C104.8 52.64 104.48 52.56 104.08 52.56C103.76 52.56 103.44 52.56 103.04 52.56C102.56 52.56 102.08 52.56 101.52 52.64C101.04 52.64 100.56 52.72 100 52.8C99.04 52.96 98 53.12 97.04 53.36C96.32 53.52 95.6 53.76 94.88 54C94.64 54.08 94.4 54.16 94.16 54.24C93.2 54.56 92.32 55.04 91.44 55.44C90.56 55.92 89.68 56.4 88.88 56.96C88.32 57.36 87.76 57.76 87.28 58.16C87.04 58.4 86.8 58.56 86.56 58.8C86.4 58.96 86.16 59.12 86 59.28C85.84 59.44 85.68 59.6 85.44 59.76C85.12 60.08 84.72 60.48 84.4 60.88C84.08 61.28 83.76 61.6 83.44 62C83.28 62.16 83.12 62.4 82.96 62.56C82.8 62.8 82.64 62.96 82.56 63.2C82.4 63.44 82.32 63.6 82.16 63.84C82 64.08 81.92 64.24 81.76 64.48C81.52 64.88 81.28 65.36 81.04 65.76C80.96 66 80.8 66.24 80.72 66.4C80.64 66.64 80.48 66.88 80.4 67.04C80.16 67.52 80 67.92 79.84 68.4C79.68 68.8 79.52 69.2 79.44 69.6C79.28 70.16 79.12 70.72 78.96 71.2C78.88 71.44 78.88 71.68 78.8 71.92C78.72 72.24 78.72 72.48 78.64 72.8C78.56 73.28 78.48 73.68 78.4 74.16C78.4 74.4 78.32 74.64 78.32 74.88C78.32 75.12 78.24 75.36 78.24 75.6C78.24 75.84 78.24 76.08 78.24 76.32C78.24 76.56 78.24 76.8 78.24 77.04C78.24 77.28 78.24 77.52 78.24 77.76C78.24 78 78.24 78.24 78.24 78.48C78.24 78.72 78.24 78.96 78.32 79.2C78.32 79.44 78.4 79.68 78.4 79.92C78.4 79.92 78.4 79.92 78.4 80C78.48 80.4 78.48 80.88 78.56 81.28C78.64 81.6 78.64 81.84 78.72 82.16C78.8 82.4 78.8 82.64 78.88 82.88C79.04 83.44 79.2 84 79.36 84.56C79.52 84.96 79.6 85.36 79.76 85.76C79.92 86.16 80.08 86.64 80.32 87.04C80.56 87.52 80.8 88 81.04 88.48C81.12 88.72 81.28 88.88 81.36 89.12C81.52 89.36 81.68 89.6 81.76 89.84C82 90.24 82.24 90.64 82.48 91.04C82.8 91.44 83.04 91.84 83.36 92.24C83.68 92.64 84 93.04 84.32 93.36C84.64 93.68 84.88 94 85.2 94.32C85.6 94.72 86 95.12 86.4 95.44C86.4 95.44 86.48 95.44 86.48 95.52C86.8 95.84 87.2 96.16 87.52 96.4C87.92 96.72 88.32 97.04 88.72 97.28C89.12 97.52 89.44 97.76 89.84 98C90.32 98.32 90.8 98.56 91.28 98.8C91.76 99.04 92.24 99.28 92.72 99.52C93.12 99.68 93.52 99.84 94 100C94 100 94 100 94.08 100H94.16C94.88 100.24 95.68 100.48 96.4 100.72C86.32 109.76 73.52 114.96 60 114.96ZM100.88 96.56C100.72 96.56 100.48 96.56 100.32 96.56C99.92 96.48 99.6 96.48 99.2 96.4C99.2 96.4 99.2 96.4 99.12 96.4C98.8 96.32 98.4 96.24 98.08 96.16H98C97.92 96.16 97.84 96.08 97.68 96.08C97.44 96 97.2 95.92 97.04 95.92C96.96 95.92 96.8 95.84 96.72 95.84C96.4 95.76 96.08 95.6 95.76 95.52C95.36 95.36 95.04 95.2 94.64 95.04C94.24 94.88 93.92 94.72 93.6 94.48C93.28 94.32 92.88 94.08 92.56 93.92C92.24 93.68 91.92 93.52 91.6 93.28C91.28 93.04 90.96 92.8 90.64 92.56C90.32 92.32 90 92.08 89.76 91.84C89.44 91.6 89.2 91.28 88.88 91.04C88.64 90.8 88.32 90.48 88.08 90.16C87.92 90 87.84 89.84 87.68 89.68C87.44 89.44 87.2 89.12 87.04 88.88C86.96 88.8 86.88 88.72 86.88 88.64C86.8 88.56 86.72 88.4 86.64 88.32C86.4 88 86.16 87.68 86 87.36C85.76 87.04 85.6 86.64 85.44 86.32C85.28 86 85.12 85.6 84.88 85.28C84.72 84.88 84.56 84.56 84.4 84.16C84.24 83.76 84.16 83.44 84 83.04C83.92 82.64 83.76 82.32 83.68 81.92C83.6 81.52 83.52 81.12 83.44 80.72C83.36 80.32 83.28 79.92 83.28 79.52C83.2 79.12 83.2 78.72 83.2 78.32C83.2 77.92 83.2 77.52 83.2 77.12C83.2 76.72 83.2 76.32 83.2 75.92C83.2 75.52 83.28 75.12 83.28 74.72C83.36 74.32 83.36 73.92 83.44 73.52C83.52 73.12 83.6 72.72 83.68 72.4C83.76 72 83.92 71.6 84 71.28C84.08 70.88 84.24 70.56 84.4 70.16C84.56 69.76 84.72 69.44 84.88 69.04C85.04 68.64 85.2 68.32 85.44 68C85.6 67.68 85.84 67.28 86 66.96C86.24 66.64 86.4 66.32 86.64 65.92C86.8 65.68 87.04 65.36 87.2 65.12C87.28 65.04 87.36 64.88 87.44 64.8C87.52 64.64 87.68 64.48 87.84 64.4C87.92 64.32 88 64.24 88.08 64.16C88.32 63.84 88.64 63.6 88.88 63.28C89.12 62.96 89.44 62.72 89.76 62.48C90.08 62.24 90.4 62 90.64 61.76C90.96 61.52 91.28 61.28 91.6 61.04C91.92 60.8 92.24 60.64 92.56 60.4C92.88 60.16 93.28 60 93.6 59.84C93.92 59.68 94.24 59.52 94.56 59.36C94.64 59.36 94.72 59.28 94.72 59.28C95.04 59.12 95.36 58.96 95.76 58.88C96.08 58.72 96.48 58.64 96.8 58.48C96.88 58.48 96.88 58.48 96.96 58.4C97.28 58.32 97.6 58.24 97.92 58.16H98C98.4 58.08 98.8 58 99.2 57.92C99.6 57.84 100 57.76 100.4 57.76C101.2 57.68 102 57.6 102.8 57.6C103.04 57.6 103.2 57.6 103.44 57.6C103.52 57.6 103.52 57.6 103.6 57.6C103.68 57.6 103.68 57.6 103.76 57.6C104 57.6 104.16 57.6 104.4 57.68C104.64 57.76 104.8 57.76 105.04 57.76C105.12 57.76 105.12 57.76 105.2 57.76C105.28 57.76 105.28 57.76 105.36 57.76C105.6 57.76 105.76 57.84 106 57.84C106.24 57.84 106.4 57.92 106.64 58C106.72 58 106.72 58 106.8 58C106.88 58 106.88 58 106.96 58C107.2 58.08 107.36 58.08 107.6 58.16C107.84 58.24 108.16 58.32 108.4 58.4C108.48 58.4 108.48 58.4 108.56 58.48C108.8 58.56 108.96 58.64 109.2 58.64C109.44 58.72 109.68 58.8 109.92 58.88C109.92 58.88 109.92 58.88 110 58.88C110.24 58.96 110.48 59.12 110.72 59.2H110.8C111.04 59.28 111.2 59.44 111.44 59.52C111.52 59.52 111.52 59.6 111.6 59.6C111.76 59.68 111.92 59.76 112.08 59.84C112.16 59.84 112.16 59.92 112.24 59.92C112.32 59.92 112.32 60 112.4 60C112.56 60.08 112.64 60.16 112.8 60.24C112.88 60.24 112.88 60.32 112.96 60.32C113.12 60.4 113.28 60.48 113.44 60.64C113.52 60.72 113.6 60.72 113.68 60.8C113.92 60.96 114.16 61.12 114.32 61.28C114.48 61.44 114.72 61.52 114.88 61.68L114.96 61.76C114.48 74.48 109.6 86.88 100.88 96.56Z" fill="#EF7028"/>
<path d="M38.8 40.3201C32.4 40.3201 27.12 45.6001 27.12 52.0001C27.12 58.4001 32.4 63.6801 38.8 63.6801C45.2 63.6801 50.48 58.4001 50.48 52.0001C50.48 45.5201 45.2 40.3201 38.8 40.3201ZM38.8 58.7201C35.04 58.7201 32.08 55.7601 32.08 52.0001C32.08 48.2401 35.04 45.2801 38.8 45.2801C42.56 45.2801 45.52 48.2401 45.52 52.0001C45.52 55.6801 42.48 58.7201 38.8 58.7201Z" fill="#EF7028"/>
</svg>
