<svg width="120" height="120" viewBox="0 0 120 120" fill="none" xmlns="http://www.w3.org/2000/svg">
<path d="M60 120C75.92 120 91.2 113.68 102.4 102.4C113.68 91.12 120 75.92 120 60C120 52.64 118.64 45.36 116 38.48C111.68 27.12 104 17.36 94 10.48C84 3.6 72.16 0 60 0C44.08 0 28.8 6.32 17.6 17.6C6.32 28.8 0 44.08 0 60C0 75.92 6.32 91.2 17.6 102.4C28.8 113.68 44.08 120 60 120ZM15.36 24.48C18.24 25.36 21.04 26.64 23.6 28.24C26.16 29.84 27.84 32.48 28.32 35.44C28.4 37.92 27.84 40.4 26.64 42.56C25.92 44.24 25.04 45.92 24.24 47.52C22.72 50.32 21.36 53.28 20.24 56.32C18.24 62.16 18.32 67.76 20.48 72C22.56 75.92 26.56 78.48 30.96 78.64C32.32 78.64 33.68 78.32 34.88 77.76C38.56 76.08 40.56 72.32 42 68.88L42.32 68.08C43.52 65.28 44.8 62.32 47.04 60.56C49.6 58.48 53.12 58.16 56.8 57.76C60.48 57.36 64.56 56.96 67.84 54.56C70.56 52.4 72.32 49.28 72.56 45.76C72.8 42.4 71.84 39.04 69.84 36.32C68.72 34.88 67.44 33.52 66.08 32.32C65.28 31.6 64.64 30.88 63.92 30.16C62.48 28.72 60.88 26.32 61.12 23.84C61.44 20.8 64.56 18.8 66.32 17.84C67.28 17.36 68.16 16.96 69.28 16.48C71.44 15.68 73.44 14.56 75.28 13.2C77.44 11.44 78.8 8.88 78.96 6.16C86.4 8.8 93.12 12.96 98.88 18.32C104.64 23.68 109.2 30.24 112.32 37.44C109.52 37.6 106.88 38.8 104.96 40.88C102.64 43.44 101.28 46.72 101.2 50.24V53.04C101.2 55.84 101.28 58.4 99.76 60C98.24 61.6 95.52 61.76 91.6 60.8L90.96 60.64C87.68 59.84 84 58.88 80.72 60.48C76.24 62.72 75.04 68.48 76.32 73.04C77.28 76 78.64 78.72 80.32 81.28C80.96 82.32 81.52 83.28 82.08 84.32C83.92 87.28 84.88 90.64 85.04 94.08C85.04 97.36 83.44 100.4 80.8 102.32C79.52 103.12 78.08 103.52 76.56 103.36C75.04 103.2 73.68 102.56 72.64 101.52C71.52 99.84 70.8 97.84 70.56 95.76C70.32 93.2 69.36 90.8 67.92 88.72C64.96 85.12 59.68 85.04 56.08 86.4C52.56 88.08 49.44 90.48 46.96 93.52L46.56 94C44.48 96.56 41.92 98.72 39.12 100.48C32.88 103.76 25.04 101.6 18.88 99.36C9.28 89.44 3.68 76.32 3.04 62.48C2.32 48.88 6.72 35.28 15.36 24.48Z" fill="#EF7028"/>
<path d="M80.4 39.52C81.28 41.04 82.88 42.08 84.72 42.16C85.12 42.16 85.44 42.08 85.84 42C88.64 41.2 89.44 37.84 89.68 36.72C90.08 35.12 90.48 33.2 91.76 32.56C92.32 32.32 92.96 32.16 93.68 32.08C94.56 32 95.44 31.76 96.32 31.44C97.2 30.96 97.92 30.24 98.32 29.28C98.72 28.32 98.8 27.28 98.56 26.32C98.08 23.92 95.92 21.28 93.2 21.04C91.92 21.04 90.64 21.2 89.44 21.6C88.96 21.76 88.48 21.84 88 22L87.04 22.16C85.04 22.48 82.96 22.88 81.36 24.56C78.96 27.04 78.88 30.72 79.2 34.24C79.12 36.16 79.6 37.92 80.4 39.52Z" fill="#EF7028"/>
</svg>
