<svg width="118" height="134" viewBox="0 0 118 134" fill="none" xmlns="http://www.w3.org/2000/svg">
<path d="M25.3938 105.195C11.2202 94.787 2 78.0461 2 59.0959C2.04904 27.5287 27.5518 2 59.0869 2C90.622 2 116.125 27.5778 116.125 59.0959V132H19.3615C19.3615 132 19.901 124.243 30.053 120.021L25.3938 105.195Z" stroke="black" stroke-width="3" stroke-miterlimit="10" stroke-linecap="round" stroke-linejoin="round"/>
<path d="M58.8416 131.902C62.0784 120.512 72.5248 112.166 84.9328 112.166C97.3899 112.166 107.836 120.561 111.024 131.951L58.8416 131.902Z" fill="#EF7028" stroke="black" stroke-width="3" stroke-miterlimit="10" stroke-linecap="round" stroke-linejoin="round"/>
<path d="M116.125 95.0814L30.102 119.972L25.3938 105.195L116.125 77.9478V95.0814Z" fill="#EF7028" stroke="black" stroke-width="3" stroke-miterlimit="10" stroke-linecap="round" stroke-linejoin="round"/>
<path d="M27.1594 110.644L42.1668 106.275" stroke="black" stroke-width="3" stroke-miterlimit="10" stroke-linecap="round" stroke-linejoin="round"/>
<path d="M116.125 85.0171L85.2273 94.0503" stroke="black" stroke-width="3" stroke-miterlimit="10" stroke-linecap="round" stroke-linejoin="round"/>
<path d="M61.392 64.2506C67.0259 64.2506 71.5931 59.6788 71.5931 54.0391C71.5931 48.3995 67.0259 43.8276 61.392 43.8276C55.7581 43.8276 51.1909 48.3995 51.1909 54.0391C51.1909 59.6788 55.7581 64.2506 61.392 64.2506Z" fill="#EF7028" stroke="black" stroke-width="3" stroke-miterlimit="10" stroke-linecap="round" stroke-linejoin="round"/>
<path d="M71.6421 51.0932L84.4915 47.313" stroke="black" stroke-width="3" stroke-miterlimit="10" stroke-linecap="round" stroke-linejoin="round"/>
<path d="M48.7876 80.2549C48.7876 86.4898 50.8965 87.2262 50.8965 87.2262" stroke="black" stroke-width="3" stroke-miterlimit="10" stroke-linecap="round" stroke-linejoin="round"/>
<path d="M51.2889 51.044C48.3953 48.4911 46.1393 45.0054 44.5699 41.3725C42.3139 36.1686 42.8534 34.1557 36.3796 30.9646C29.9059 27.7736 23.9225 24.5334 27.3556 17.8566C32.7013 18.9858 35.5949 17.4148 39.5675 15.1074C40.6464 14.5183 42.8534 13.8801 45.747 13.4873" stroke="black" stroke-width="3" stroke-miterlimit="10" stroke-linecap="round" stroke-linejoin="round"/>
<path d="M29.7096 27.0859C29.7096 27.0859 25.688 34.1554 24.4619 40.6849C23.2358 47.2143 23.3829 46.8707 22.9415 49.3745C22.5002 51.8782 15.4869 54.382 14.8984 57.1313C14.3099 59.8805 21.6664 66.8027 24.0205 65.9681C24.0695 67.6373 22.4511 70.8775 26.7179 71.663C30.9847 72.4485 28.7777 75.6887 29.7586 77.8488C31.8185 82.1199 38.5374 83.4455 43.8832 80.7944C49.3271 77.8979 53.2015 76.916 56.6836 77.2597" stroke="black" stroke-width="3" stroke-miterlimit="10" stroke-linecap="round" stroke-linejoin="round"/>
<path d="M29.5658 47.5658C29.7723 45.8975 29.286 44.464 28.4796 44.3639C27.6732 44.2639 26.8521 45.5352 26.6455 47.2034C26.4389 48.8717 26.9252 50.3052 27.7316 50.4053C28.538 50.5053 29.3592 49.234 29.5658 47.5658Z" stroke="black" stroke-width="3" stroke-miterlimit="10" stroke-linecap="round" stroke-linejoin="round"/>
<path d="M27.7478 38.5249C27.7478 38.5249 30.8376 37.2976 33.9764 40.5377" stroke="black" stroke-width="3" stroke-miterlimit="10" stroke-linecap="round" stroke-linejoin="round"/>
<path d="M61.2937 64.4468C57.3702 83.986 43.3437 99.5978 25.2957 104.9" stroke="black" stroke-width="3" stroke-miterlimit="10" stroke-linecap="round" stroke-linejoin="round"/>
<path d="M36.6738 6.56543C49.5723 14.2731 58.9887 27.823 61.6371 43.7784" stroke="black" stroke-width="3" stroke-miterlimit="10" stroke-linecap="round" stroke-linejoin="round"/>
<path d="M61.3919 58.1139C63.6401 58.1139 65.4625 56.2896 65.4625 54.0391C65.4625 51.7887 63.6401 49.9644 61.3919 49.9644C59.1438 49.9644 57.3213 51.7887 57.3213 54.0391C57.3213 56.2896 59.1438 58.1139 61.3919 58.1139Z" fill="white" stroke="black" stroke-width="3" stroke-miterlimit="10" stroke-linecap="round" stroke-linejoin="round"/>
</svg>
