<svg width="379" height="185" viewBox="0 0 379 185" fill="none" xmlns="http://www.w3.org/2000/svg">
<path d="M139.5 157.6C139.5 165.1 116.4 171.3 85.5 172.9C80.4 173.2 75.2 173.3 69.8 173.3C56.7 173.3 44.5 172.5 34 171.1C13.7 168.4 0 163.3 0 157.6C0 151.6 14.8 146.4 36.5 143.8C46.4 142.6 57.7 141.9 69.8 141.9C83.5 141.9 96.2 142.8 107 144.3C126.5 147.1 139.5 152 139.5 157.6Z" fill="black"/>
<path d="M240.9 132.3C240.9 132.3 294.4 90.9 290.3 63.2C266.4 70.2 268.8 69.7 262.2 70.8C255.6 71.9 222.5 80.8 216.8 90.8C211.1 100.8 192.1 124 185.9 141C179.7 158 183.3 178.1 207.7 175.9C232.1 173.6 234.9 169 258.4 165.9C281.9 162.8 319.9 163.7 319.9 163.7C319.9 163.7 312.5 151.8 312.5 127.1C310.5 124.3 243.6 128.5 229.2 134.2C214.7 139.9 211.3 150.4 211.3 150.4" fill="white"/>
<path d="M240.9 132.3C240.9 132.3 294.4 90.9 290.3 63.2C266.4 70.2 268.8 69.7 262.2 70.8C255.6 71.9 222.5 80.8 216.8 90.8C211.1 100.8 192.1 124 185.9 141C179.7 158 183.3 178.1 207.7 175.9C232.1 173.6 234.9 169 258.4 165.9C281.9 162.8 319.9 163.7 319.9 163.7C319.9 163.7 312.5 151.8 312.5 127.1C310.5 124.3 243.6 128.5 229.2 134.2C214.7 139.9 211.3 150.4 211.3 150.4" stroke="black" stroke-width="2" stroke-miterlimit="10" stroke-linecap="round" stroke-linejoin="round"/>
<path d="M248.8 136.9C248.8 136.9 302.1 96.3 298.1 68.6C274.2 75.6 276.6 75.1 270 76.2C263.4 77.3 243.6 79.3 224.6 96.2C218.6 105.8 199.9 129.4 193.7 146.4C187.5 163.4 191.1 183.5 215.5 181.3C239.9 179 242.7 174.4 266.2 171.3C289.7 168.2 327.7 169.1 327.7 169.1C327.7 169.1 320.3 157.2 320.3 132.5C318.3 129.7 251.4 133.9 237 139.6C222.5 145.3 219.1 155.8 219.1 155.8" fill="white"/>
<path d="M248.8 136.9C248.8 136.9 302.1 96.3 298.1 68.6C274.2 75.6 276.6 75.1 270 76.2C263.4 77.3 243.6 79.3 224.6 96.2C218.6 105.8 199.9 129.4 193.7 146.4C187.5 163.4 191.1 183.5 215.5 181.3C239.9 179 242.7 174.4 266.2 171.3C289.7 168.2 327.7 169.1 327.7 169.1C327.7 169.1 320.3 157.2 320.3 132.5C318.3 129.7 251.4 133.9 237 139.6C222.5 145.3 219.1 155.8 219.1 155.8" stroke="black" stroke-width="2" stroke-miterlimit="10" stroke-linecap="round" stroke-linejoin="round"/>
<path d="M311.6 131.7L324.5 120.9C324.5 120.9 337.4 122.6 347.7 138.1C347.3 141.5 347.7 142.4 347.7 142.4C347.7 142.4 359 149 355.3 174.3C353.8 179.4 351.5 183 347.2 183.2C342.9 183.4 341.7 179.8 342.1 177.2C342.5 174.6 344.6 171.9 342.3 167.6C340 163.3 326.8 155.3 326.8 155.3C326.8 155.3 329.6 132.1 311.6 131.7Z" fill="black"/>
<path d="M224.5 96.2001C228.5 94.4001 239.2 81.5 264.8 77C278.7 74.5 292 74.6001 298.1 68.6001C301.9 64.0001 297.9 51.5001 294.8 47.6001C283.2 24.4001 252.8 8.90005 208.3 3.10005C161.4 -2.99995 87.5 9.60004 53.8 92.9C45.6 115.3 43.8 142.1 55 171.2C70.9 171.8 95.3 171.2 95.3 171.2C95.3 171.2 116.3 151.9 124.8 144C133.3 136.1 140.7 120.2 173.9 104.3C192.3 95.4 220 95.3001 224.5 96.2001Z" fill="#EF7028" stroke="black" stroke-width="2" stroke-miterlimit="10" stroke-linecap="round" stroke-linejoin="round"/>
<path d="M324 160.1C324 160.1 331.8 159.5 337.5 159.3C341.1 156.9 342.6 141.8 333.9 138C325.2 134.2 318.6 134.7 318.6 134.7C318.6 134.7 317.8 155.2 324.2 160.8" fill="#EF7028"/>
<path d="M324 160.1C324 160.1 331.8 159.5 337.5 159.3C341.1 156.9 342.6 141.8 333.9 138C325.2 134.2 318.6 134.7 318.6 134.7C318.6 134.7 317.8 155.2 324.2 160.8" stroke="black" stroke-width="2" stroke-miterlimit="10" stroke-linecap="round" stroke-linejoin="round"/>
<path d="M107.2 180.2C107.2 180.2 100.7 178.5 102.7 174.2C104.7 169.9 128.5 164 128.5 164H141.9C141.9 164 151.2 161.2 154.2 157.5" fill="white"/>
<path d="M107.2 180.2C107.2 180.2 100.7 178.5 102.7 174.2C104.7 169.9 128.5 164 128.5 164H141.9C141.9 164 151.2 161.2 154.2 157.5" stroke="black" stroke-width="2" stroke-miterlimit="10" stroke-linecap="round" stroke-linejoin="round"/>
<path d="M150 159.8L141.8 139.6L162.4 132.2C162.4 132.2 175.5 156.3 173.8 169.1C172.1 181.9 166.7 182.2 158.8 181.5C150.9 180.8 143.8 176.8 136.1 178.2C128.4 179.6 113.1 185.2 110.3 181.7C107.5 178.2 116.8 172.2 135.8 171.3" stroke="black" stroke-width="2" stroke-miterlimit="10" stroke-linecap="round" stroke-linejoin="round"/>
<path d="M79.9 143.6C79.9 143.6 85.9 144.7 92.9 128.6C100 112.4 109.1 87.8 113.3 81.3C119.3 91.2 140.7 141.4 140.7 141.4C140.7 141.4 157.7 134.9 164.5 132.3C158.8 100.3 143.4 40.5 121.5 37.9C99.6 35.3 81 54.1 60.6 102.8" fill="#EF7028"/>
<path d="M79.9 143.6C79.9 143.6 85.9 144.7 92.9 128.6C100 112.4 109.1 87.8 113.3 81.3C119.3 91.2 140.7 141.4 140.7 141.4C140.7 141.4 157.7 134.9 164.5 132.3C158.8 100.3 143.4 40.5 121.5 37.9C99.6 35.3 81 54.1 60.6 102.8" stroke="black" stroke-width="2" stroke-miterlimit="10" stroke-linecap="round" stroke-linejoin="round"/>
<path d="M334.9 159C334.9 159 348.1 160.1 351.3 162.6C354.5 165.1 357.3 165.6 361.7 175.6C366 185.6 373.8 185.4 376.3 184.1C378.8 182.8 384.2 155.8 356.8 140.3C355.3 135.6 354.7 134.8 354.7 134.8L334.1 120.9L320.3 133.4C320.3 133.3 348.3 149 334.9 159Z" fill="black"/>
<path d="M109.8 72.7C109.8 72.7 114.4 82.8 117.1 88.4" stroke="black" stroke-width="2" stroke-miterlimit="10" stroke-linecap="round" stroke-linejoin="round"/>
<path d="M217.1 95.5C216.4 96 233.3 69.1 258.5 60.9C283.7 52.7 294.8 47.6 294.8 47.6" stroke="black" stroke-width="2" stroke-miterlimit="10" stroke-linecap="round" stroke-linejoin="round"/>
<path d="M289.9 51C289.9 51 295 58.1 293.6 71.4" stroke="black" stroke-width="2" stroke-miterlimit="10" stroke-linecap="round" stroke-linejoin="round"/>
<path d="M283.1 53.5C283.1 53.5 290.2 62.6 288.2 73.1" stroke="black" stroke-width="2" stroke-miterlimit="10" stroke-linecap="round" stroke-linejoin="round"/>
<path d="M277.2 55.5C277.2 55.5 282.6 61.2 282 74.2" stroke="black" stroke-width="2" stroke-miterlimit="10" stroke-linecap="round" stroke-linejoin="round"/>
<path d="M271.1 57.2C271.1 57.2 276.5 64.4 275.4 75.2" stroke="black" stroke-width="2" stroke-miterlimit="10" stroke-linecap="round" stroke-linejoin="round"/>
<path d="M265.4 58.9C265.4 58.9 270.1 67.1 269.5 76" stroke="black" stroke-width="2" stroke-miterlimit="10" stroke-linecap="round" stroke-linejoin="round"/>
<path d="M259.7 61.1C259.7 61.1 263.6 70.2 262.9 77.1" stroke="black" stroke-width="2" stroke-miterlimit="10" stroke-linecap="round" stroke-linejoin="round"/>
<path d="M254 63C254 63 256.6 72.9 257.5 78.4" stroke="black" stroke-width="2" stroke-miterlimit="10" stroke-linecap="round" stroke-linejoin="round"/>
<path d="M248.3 65.6C248.3 65.6 250.2 73.4 252.2 80.2" stroke="black" stroke-width="2" stroke-miterlimit="10" stroke-linecap="round" stroke-linejoin="round"/>
<path d="M243.2 68.9C243.2 68.9 244.2 76.1 246.9 81.8" stroke="black" stroke-width="2" stroke-miterlimit="10" stroke-linecap="round" stroke-linejoin="round"/>
<path d="M238.3 72.3C238.3 72.3 238.7 79.1 241.5 84.5" stroke="black" stroke-width="2" stroke-miterlimit="10" stroke-linecap="round" stroke-linejoin="round"/>
<path d="M233 77.2C233 77.2 233.8 82.5 236.8 86.8" stroke="black" stroke-width="2" stroke-miterlimit="10" stroke-linecap="round" stroke-linejoin="round"/>
<path d="M228.3 81.9C228.3 81.9 229.3 85.3 232.5 89.7" stroke="black" stroke-width="2" stroke-miterlimit="10" stroke-linecap="round" stroke-linejoin="round"/>
<path d="M224.5 86.6C224.5 86.6 225.5 90.6 227.6 92.9" stroke="black" stroke-width="2" stroke-miterlimit="10" stroke-linecap="round" stroke-linejoin="round"/>
<path d="M137.4 132.6C137.4 132.6 155.5 123.8 162.3 123" stroke="black" stroke-width="2" stroke-miterlimit="10" stroke-linecap="round" stroke-linejoin="round"/>
</svg>
