<svg width="117" height="245" viewBox="0 0 117 245" fill="none" xmlns="http://www.w3.org/2000/svg">
<path d="M116.482 11.4342C116.482 15.7755 104.192 19.5666 86.0929 21.4621H86.0317C85.9706 21.4621 85.9094 21.4621 85.8483 21.4621C85.0534 21.5232 84.3197 21.6455 83.5248 21.7067C75.8816 22.4404 67.3212 22.8684 58.2717 22.8684C49.5279 22.8684 41.2732 22.5015 33.8746 21.8289C33.2632 21.7678 32.5906 21.7067 31.9791 21.6455C30.5116 21.5232 29.1053 21.3398 27.6989 21.1563C27.5155 21.1563 27.332 21.0952 27.1486 21.0952C27.0875 21.0952 27.0263 21.0952 26.9652 21.0952C15.7755 19.6889 7.15402 17.5488 2.93498 15.0418C1.03947 13.88 0 12.7183 0 11.4342C0 7.5209 9.96672 4.09675 25.1308 2.0178C25.7423 1.95666 26.2926 1.83437 26.904 1.77322C27.0875 1.71207 27.332 1.71207 27.5155 1.71207C27.9435 1.65093 28.3104 1.58978 28.7384 1.58978C31.6734 1.22291 34.7918 0.978328 37.9714 0.733746C42.1904 0.428019 46.5929 0.183437 51.1788 0.122291C53.5635 2.73342e-08 55.887 0 58.2105 0C66.4652 0 74.3529 0.366873 81.507 0.978328C82.8522 1.10062 84.1974 1.22291 85.4814 1.3452C85.6037 1.3452 85.726 1.3452 85.8483 1.40635C85.9094 1.40635 85.9706 1.40635 86.0317 1.40635C104.192 3.363 116.482 7.09288 116.482 11.4342Z" fill="black"/>
<path d="M44.64 210.369L41.9496 226.573C39.8096 228.224 37.6083 229.875 35.8962 226.328L36.0185 210.919L44.64 210.369Z" fill="#EF7028" stroke="black" stroke-miterlimit="10" stroke-linecap="round" stroke-linejoin="round"/>
<path d="M35.3459 225.105C35.3459 225.105 33.1446 229.936 26.969 231.159C20.7933 232.382 20.6098 232.321 18.5309 232.932C16.3908 233.544 15.229 234.277 15.4736 236.601C15.7182 238.924 21.4047 238.496 24.9512 238.863C27.1524 239.108 29.9039 238.924 31.188 238.557C32.044 238.313 31.7383 237.212 31.8606 237.457C32.2886 238.068 31.9217 237.763 32.7778 239.169C35.7739 239.719 43.2337 238.374 43.2337 238.374C43.2337 238.374 43.2948 235.317 43.3559 234.766C43.4171 234.277 43.4171 226.39 42.4999 225.167C41.277 227.307 38.4032 229.508 35.3459 225.105Z" fill="black"/>
<path d="M86.6471 123.543C85.0573 142.865 71.6053 206.395 71.483 217.891C66.5302 217.157 60.6602 213.488 56.6246 215.384C55.8909 206.395 60.4768 164.388 62.4335 136.445C63.9621 114.861 63.901 77.1949 57.4807 75.544C51.0604 73.8931 48.6146 112.231 48.4311 132.898C48.1254 160.903 49.3483 203.155 47.8808 212.082C44.0287 209.881 37.9141 213.06 32.9002 213.366C33.6951 201.932 25.4404 137.484 25.4404 118.101C25.4404 98.7181 31.0658 52.4921 33.5116 39.8962C35.2849 30.5409 85.3019 38.3675 86.1579 46.3776C87.5643 59.157 88.2369 104.221 86.6471 123.543Z" fill="white" stroke="black" stroke-miterlimit="10" stroke-linecap="round" stroke-linejoin="round"/>
<path d="M60.0488 213.978L61.4552 230.303C63.473 232.077 65.4908 233.911 67.5086 230.548L68.6092 215.2L60.0488 213.978Z" fill="#EF7028" stroke="black" stroke-miterlimit="10" stroke-linecap="round" stroke-linejoin="round"/>
<path d="M68.1811 229.386C68.1811 229.386 70.0155 234.339 76.0078 236.112C82 237.885 82.2446 237.763 84.2624 238.558C86.2802 239.353 87.442 240.148 87.0139 242.471C86.5859 244.795 80.9605 243.878 77.353 244C75.1517 244.061 72.4002 243.694 71.1161 243.205C70.2601 242.899 70.6881 241.799 70.5047 242.043C70.0766 242.655 70.3824 242.349 69.4652 243.633C66.469 243.939 59.1316 242.043 59.1316 242.043C59.1316 242.043 59.315 238.986 59.315 238.436C59.315 237.946 59.9265 230.059 60.966 228.958C62.0666 231.098 64.757 233.483 68.1811 229.386Z" fill="black"/>
<path d="M89.0929 17.2723C89.0929 21.6748 89.0317 25.7104 88.8483 29.0734C88.6037 34.0873 88.2368 37.6338 87.5642 38.8567C87.1974 43.3815 88.1757 48.2731 86.7082 53.4093C84.4458 57.6284 32.4721 53.0424 31.7384 50.7801C31.0658 48.5177 31.1881 42.4643 32.1053 37.2669C31.4938 34.5765 31.0046 31.7027 30.6378 28.7065C30.2097 24.9155 29.9652 20.8799 29.904 16.8443C29.8429 14.3373 29.8429 11.8304 29.904 9.3234C30.0874 9.26226 30.332 9.26226 30.5155 9.26226C30.9435 9.20111 31.3104 9.13997 31.7384 9.13997C34.6734 8.77309 37.7918 8.52851 40.9714 8.28393C45.1904 7.9782 49.5929 7.73362 54.1788 7.67247C56.5635 7.61133 58.887 7.61133 61.2105 7.61133C69.4652 7.61133 77.3529 7.9782 84.507 8.58966C85.8522 8.71195 87.1974 8.83424 88.4814 8.95653C88.6037 8.95653 88.726 8.95653 88.8483 9.01767C88.9094 9.01767 88.9706 9.01767 89.0317 9.01767C89.0929 11.8304 89.0929 14.6431 89.0929 17.2723Z" fill="#EF7028" stroke="black" stroke-miterlimit="10" stroke-linecap="round" stroke-linejoin="round"/>
<path d="M32.7778 37.5117C32.7778 37.5117 74.2956 43.5651 87.3808 39.4072" stroke="black" stroke-miterlimit="10" stroke-linecap="round" stroke-linejoin="round"/>
<path d="M78.3926 54.9373L78.8817 40.9961" stroke="black" stroke-miterlimit="10" stroke-linecap="round" stroke-linejoin="round"/>
<path d="M73.4395 54.9373L74.1121 40.9961" stroke="black" stroke-miterlimit="10" stroke-linecap="round" stroke-linejoin="round"/>
<path d="M70.0155 41.3027L69.4041 54.3879" stroke="black" stroke-miterlimit="10" stroke-linecap="round" stroke-linejoin="round"/>
<path d="M65.0015 54.1436L65.9186 40.875" stroke="black" stroke-miterlimit="10" stroke-linecap="round" stroke-linejoin="round"/>
<path d="M61.5773 40.875L60.9658 53.5933" stroke="black" stroke-miterlimit="10" stroke-linecap="round" stroke-linejoin="round"/>
<path d="M56.6858 53.471L57.7253 40.875" stroke="black" stroke-miterlimit="10" stroke-linecap="round" stroke-linejoin="round"/>
<path d="M53.6284 40.4463L52.2832 52.9811" stroke="black" stroke-miterlimit="10" stroke-linecap="round" stroke-linejoin="round"/>
<path d="M49.0424 39.957L48.0029 52.6753" stroke="black" stroke-miterlimit="10" stroke-linecap="round" stroke-linejoin="round"/>
<path d="M44.6402 39.6514L43.5396 52.3085" stroke="black" stroke-miterlimit="10" stroke-linecap="round" stroke-linejoin="round"/>
<path d="M39.504 38.7949L38.8926 51.9412" stroke="black" stroke-miterlimit="10" stroke-linecap="round" stroke-linejoin="round"/>
<path d="M83.4676 40.6914C83.5287 41.1194 83.4676 51.3307 83.0396 54.1434" stroke="black" stroke-miterlimit="10" stroke-linecap="round" stroke-linejoin="round"/>
<path d="M35.2847 38.123C35.2847 38.123 34.2452 48.8847 34.6121 50.8413" stroke="black" stroke-miterlimit="10" stroke-linecap="round" stroke-linejoin="round"/>
</svg>
