<svg width="91" height="160" viewBox="0 0 91 160" fill="none" xmlns="http://www.w3.org/2000/svg">
<path d="M51.5696 112.67C50.0122 112.065 47.9355 111.459 45.4262 110.853C43.6092 110.421 42.1382 109.988 41.0999 109.642C40.1482 109.296 39.3694 108.863 38.7638 108.258C38.2445 107.825 38.0715 107.219 38.0715 106.441C38.0715 105.229 38.5907 104.277 39.802 103.585C41.0999 102.806 42.917 102.374 45.1666 102.374C47.5894 102.374 50.0122 102.806 52.1753 103.499C52.608 103.672 53.0406 103.758 53.3866 103.758C54.3385 103.758 55.1171 103.412 55.7229 102.72C56.242 102.114 56.5016 101.336 56.5016 100.557C56.5016 99.0858 55.7229 98.0475 54.3385 97.5284C51.4831 96.49 48.195 95.8844 44.6475 95.8844C41.9652 95.8844 39.5424 96.317 37.5524 97.2688C35.5622 98.2206 34.0048 99.5185 32.8799 101.162C31.8417 102.806 31.3224 104.624 31.3224 106.7C31.3224 109.036 32.0147 110.94 33.3126 112.411C34.524 113.795 36.0814 114.747 37.8119 115.439C39.3694 116.045 41.5326 116.737 44.0418 117.343C44.7007 117.531 45.3141 117.697 45.8737 117.848C46.8574 118.113 47.6749 118.334 48.2816 118.554C49.1469 118.814 49.8391 119.246 50.4448 119.766C50.8774 120.112 51.0504 120.544 51.0504 121.15C51.0504 122.275 51.0504 125.217 44.1283 125.217C41.0999 125.217 38.158 124.611 35.4757 123.4C34.1778 122.881 32.7069 123.14 31.7551 124.092C31.1494 124.698 30.8898 125.476 30.8898 126.342C30.8898 127.034 31.0629 127.639 31.4955 128.159C31.8417 128.678 32.3608 129.11 32.9664 129.37C36.514 130.927 40.4077 131.706 44.561 131.706C47.0703 131.706 49.3199 131.274 51.3101 130.408C53.3001 129.543 54.8576 128.332 55.9824 126.774C57.1073 125.217 57.7129 123.4 57.7129 121.323C57.7129 118.9 57.1073 116.91 55.8094 115.439C54.7711 114.401 53.3001 113.363 51.5696 112.67Z" fill="#EF7028"/>
<path fill-rule="evenodd" clip-rule="evenodd" d="M22.9294 113.103C23.5351 112.584 24.0543 111.978 24.5735 111.373C25.6117 109.988 26.1309 108.171 26.1309 106.181C26.1309 103.239 25.0926 100.816 22.9294 99.0858C20.8528 97.3553 17.9975 96.49 14.4498 96.49H3.37454C2.42278 96.49 1.64402 96.8361 0.951767 97.5284C0.346126 98.134 0 98.9993 0 99.9511V128.159C0 129.11 0.346126 129.889 0.951767 130.495C1.55751 131.101 2.42278 131.447 3.28804 131.447H14.5364C18.9493 131.447 22.2372 130.495 24.4003 128.764C26.6501 126.947 27.7749 124.351 27.7749 121.063C27.7749 118.727 27.0827 116.824 25.6117 115.266C24.9196 114.401 23.9677 113.709 22.9294 113.103ZM21.1989 120.89C21.1989 122.188 20.7663 123.14 19.8145 123.832C19.1223 124.352 17.5649 124.957 14.1903 124.957H6.74908V116.824H14.2768C21.1989 116.824 21.1989 119.766 21.1989 120.89ZM6.74908 110.507V102.893H14.0172C15.8343 102.893 17.2187 103.239 18.1705 103.931C19.0358 104.537 19.4684 105.316 19.4684 106.441C19.4684 107.738 19.0358 108.69 18.257 109.382C17.6514 109.902 16.267 110.507 13.2385 110.507H6.74908Z" fill="#EF7028"/>
<path fill-rule="evenodd" clip-rule="evenodd" d="M84.536 98.134C86.6127 99.2589 88.0837 100.73 89.0355 102.46C89.9872 104.191 90.4199 106.094 90.3333 107.998C90.3333 109.988 89.8142 111.892 88.949 113.622C88.0837 115.353 86.5262 116.824 84.4495 117.949C82.4595 119.073 79.7771 119.593 76.6622 119.593H69.4806V128.332C69.4806 129.284 69.1344 130.149 68.4422 130.754C67.75 131.36 66.8848 131.706 66.0195 131.706C65.1543 131.706 64.289 131.36 63.6832 130.754C63.0776 130.149 62.7315 129.37 62.7315 128.418V99.9511C62.7315 98.9993 63.0776 98.134 63.6832 97.5284C64.3755 96.8361 65.1543 96.49 66.106 96.49H76.7487C79.8637 96.49 82.4595 97.0092 84.536 98.134ZM82.1134 111.719C83.1516 110.68 83.6708 109.556 83.6708 108.085C83.6708 106.614 83.1516 105.402 82.1134 104.45C81.075 103.499 79.1714 102.98 76.316 102.98H69.4806V113.19H76.316C79.0849 113.19 81.075 112.67 82.1134 111.719Z" fill="#EF7028"/>
<path fill-rule="evenodd" clip-rule="evenodd" d="M51.8292 144.079C53.3001 144.079 54.6845 144.425 55.8094 145.117C56.9341 145.81 57.886 146.761 58.4916 147.886C59.0973 149.011 59.4434 150.396 59.4434 151.866C59.4434 153.424 59.0973 154.722 58.4916 155.933C57.886 157.145 56.9341 158.096 55.8094 158.789C54.6845 159.481 53.3866 159.827 51.8292 159.827C50.3582 159.827 48.9738 159.481 47.8489 158.789C46.7241 158.183 45.7723 157.231 45.1666 156.02C44.561 154.808 44.2148 153.424 44.2148 151.953C44.2148 150.396 44.561 149.011 45.1666 147.886C45.7723 146.761 46.7241 145.81 47.8489 145.117C48.9738 144.425 50.2717 144.079 51.8292 144.079ZM55.8959 154.462C56.242 153.77 56.415 152.905 56.415 151.953C56.415 151.001 56.242 150.136 55.9824 149.444C55.6362 148.665 55.1171 148.146 54.425 147.713C53.7327 147.281 52.8674 147.108 51.9157 147.108C50.9639 147.108 50.0987 147.281 49.4064 147.713C48.7141 148.146 48.195 148.752 47.8489 149.444C47.5029 150.136 47.3298 151.001 47.3298 151.953C47.3298 152.905 47.5029 153.684 47.8489 154.462C48.195 155.241 48.7141 155.76 49.4064 156.193C50.7043 157.058 52.9539 157.058 54.3383 156.193C55.0306 155.76 55.5497 155.154 55.8959 154.462Z" fill="black"/>
<path d="M38.8503 144.685C38.5906 144.944 38.4176 145.377 38.4176 145.81V150.569H32.0147V145.81C32.0147 145.377 31.8417 145.031 31.582 144.685C30.9764 144.079 29.938 144.079 29.4189 144.685C29.1593 144.944 28.9863 145.377 28.9863 145.81V158.269C28.9863 158.702 29.1593 159.048 29.4189 159.394C30.0245 160 30.9764 160 31.582 159.394C31.9282 159.135 32.0147 158.702 32.0147 158.269V153.51H38.4176V158.269C38.4176 158.702 38.5906 159.048 38.8503 159.394C39.1098 159.654 39.5424 159.827 39.975 159.827C40.4077 159.827 40.7538 159.654 41.0999 159.394C41.446 159.135 41.5325 158.702 41.5325 158.269V145.81C41.5325 145.377 41.3595 145.031 41.0999 144.685C40.4077 144.079 39.4559 144.079 38.8503 144.685Z" fill="black"/>
<path d="M6.31645 150.569C7.44123 150.828 8.30649 151.088 8.99874 151.347C9.7775 151.607 10.3831 152.04 10.9023 152.645C11.508 153.337 11.7675 154.203 11.7675 155.241C11.7675 156.193 11.508 156.972 10.9888 157.664C10.4696 158.356 9.7775 158.962 8.91223 159.308C8.04697 159.654 7.0951 159.827 5.97032 159.827C4.2398 159.827 2.50928 159.481 0.951766 158.789C0.692251 158.702 0.432631 158.529 0.259621 158.269C0.086505 158.01 0 157.75 0 157.404C0 157.058 0.17301 156.625 0.259621 156.452C0.692251 155.933 1.3844 155.847 1.99014 156.106C3.11492 156.625 4.41281 156.885 5.7107 156.885C8.56611 156.885 8.56611 155.674 8.56611 155.241C8.56611 155.068 8.4796 154.895 8.30649 154.722C8.13348 154.462 7.78735 154.289 7.44123 154.203C7.24582 154.164 7.01514 154.089 6.74908 154.003C6.42619 153.899 6.05123 153.778 5.6242 153.684C5.18048 153.536 4.75249 153.403 4.35387 153.28C3.81974 153.116 3.33821 152.967 2.94191 152.818C2.16315 152.559 1.4709 152.126 0.951766 151.52C0.346126 150.915 0.086505 150.049 0.086505 149.011C0.086505 148.146 0.346126 147.281 0.778756 146.588C1.29789 145.896 1.99014 145.29 2.8554 144.858C3.72067 144.425 4.75894 144.252 5.97032 144.252C7.52773 144.252 8.91223 144.512 10.2101 144.944C10.8158 145.117 11.1619 145.637 11.1619 146.329C11.1619 146.675 11.0754 147.021 10.8158 147.281C10.3831 147.713 9.95051 147.973 9.17175 147.627C7.35472 147.021 5.10506 146.934 3.89368 147.627C3.37454 147.886 3.20142 148.232 3.20142 148.752C3.20142 149.011 3.28804 149.271 3.46105 149.444C3.72067 149.703 4.06669 149.876 4.41281 150.049C4.84544 150.222 5.53769 150.396 6.31645 150.569Z" fill="black"/>
<path d="M21.1124 147.108C20.0741 147.108 19.2089 147.281 18.5166 147.713C17.8244 148.146 17.3052 148.752 16.9591 149.79C16.6131 150.482 16.44 151.347 16.44 152.299C16.44 153.251 16.6131 154.116 16.9591 154.808C17.3052 155.587 17.8244 156.106 18.5166 156.539C19.2089 156.972 20.0741 157.145 21.1124 157.145C21.8046 157.145 22.4103 157.058 22.9294 156.885C23.4486 156.712 24.0543 156.452 24.5734 156.193C25.0926 155.933 25.7848 156.02 26.2175 156.452C26.477 156.712 26.6501 157.058 26.6501 157.404C26.6501 157.923 26.3905 158.442 25.8713 158.702C25.1791 159.135 24.4004 159.394 23.6217 159.654C22.8429 159.913 21.9777 160 21.0259 160C19.6415 160 18.257 159.654 17.1322 159.048C15.9208 158.356 15.0556 157.491 14.3633 156.279C13.6712 155.068 13.325 153.684 13.325 152.126C13.325 150.569 13.6712 149.184 14.3633 147.973C15.0556 146.761 16.0073 145.81 17.1322 145.204C18.257 144.598 19.5549 144.252 21.0259 144.252C21.9777 144.252 22.8429 144.339 23.6217 144.598C24.4004 144.771 25.0926 145.117 25.8713 145.55C26.3905 145.81 26.6501 146.242 26.6501 146.848C26.6501 147.194 26.477 147.54 26.2175 147.8C25.8713 148.232 25.0926 148.319 24.5734 148.059C23.9678 147.713 23.4486 147.54 22.9294 147.367C22.4103 147.194 21.8046 147.108 21.1124 147.108Z" fill="black"/>
<path fill-rule="evenodd" clip-rule="evenodd" d="M72.9416 145.117C71.8167 144.425 70.4323 144.079 68.9614 144.079C67.4039 144.079 66.106 144.425 64.9811 145.117C63.8563 145.81 62.9046 146.761 62.2988 147.886C61.6932 149.098 61.347 150.396 61.347 151.953C61.347 153.424 61.6932 154.808 62.2988 156.02C62.9046 157.231 63.8563 158.183 64.9811 158.789C66.106 159.481 67.4904 159.827 68.9614 159.827C70.5188 159.827 71.8167 159.481 72.9416 158.789C74.0663 158.096 75.0182 157.145 75.6239 155.933C76.2295 154.722 76.5756 153.424 76.5756 151.866C76.5756 150.396 76.2295 149.011 75.6239 147.886C75.0182 146.761 74.153 145.81 72.9416 145.117ZM73.5472 151.953C73.5472 152.905 73.3742 153.77 73.0281 154.462C72.682 155.154 72.1628 155.76 71.4706 156.193C70.0862 157.058 67.8365 157.058 66.5386 156.193C65.8464 155.76 65.3272 155.241 64.9811 154.462C64.6351 153.684 64.462 152.905 64.462 151.953C64.462 151.001 64.6351 150.136 64.9811 149.444C65.3272 148.752 65.8464 148.146 66.5386 147.713C67.2309 147.281 68.0961 147.108 69.0479 147.108C69.9997 147.108 70.8649 147.281 71.5572 147.713C72.2493 148.146 72.7685 148.752 73.1146 149.444C73.3742 150.136 73.5472 151.001 73.5472 151.953Z" fill="black"/>
<path d="M88.2567 156.539C88.6893 156.539 89.1219 156.712 89.3814 156.972C89.7276 157.318 89.9007 157.664 89.9007 158.01C89.9007 158.442 89.7276 158.875 89.468 159.135C89.1219 159.394 88.7758 159.567 88.3432 159.567H81.1614C80.6423 159.567 80.1232 159.394 79.7771 159.048C79.4309 158.702 79.2579 158.269 79.2579 157.75V145.81C79.2579 145.377 79.4309 144.944 79.6905 144.685C80.2097 144.079 81.2481 144.079 81.8537 144.685C82.1133 145.031 82.2863 145.377 82.2863 145.81V156.539H88.2567Z" fill="black"/>
<path d="M23.3617 32.6337L9.51746 29.3457C9.51746 29.3457 16.353 16.2802 34.0909 16.4533C34.0909 16.4533 37.8115 12.7327 47.3294 6.07015C56.8473 -0.592371 66.1056 -0.851949 70.1724 0.9651C74.1526 2.78215 78.6519 8.66593 78.5654 20.7796C78.4789 32.8933 76.2292 40.6806 76.2292 40.6806C76.2292 40.6806 85.9201 54.3518 77.0945 67.8498L67.0574 57.7263C67.0574 57.7263 63.8559 65.2541 46.0315 59.7164L25.6113 80.05L32.8795 51.929C32.8795 51.929 22.4964 45.2665 23.3617 32.6337Z" fill="black"/>
<path d="M47.5894 53.6596C45.8589 56.4285 30.9764 70.4457 30.9764 70.4457C30.9764 70.4457 36.0814 50.3716 37.7254 47.6893C39.3694 45.007 42.917 44.1417 45.5993 45.7857C48.3681 47.4297 49.2334 50.9773 47.5894 53.6596Z" fill="#EF7028"/>
<path d="M46.551 49.3332C45.7723 50.6311 37.2062 59.7163 37.2062 59.7163C37.2062 59.7163 41.2729 47.7757 41.9651 46.5643C42.7439 45.2664 44.3879 44.9203 45.6857 45.6991C46.9836 46.4778 47.3297 48.1218 46.551 49.3332Z" fill="white"/>
<path d="M68.8752 3.90693C64.895 2.34946 59.2708 3.12819 52.4352 7.62756C52.4352 7.62756 66.366 6.58924 74.8455 20.0873C74.8455 20.0873 74.759 6.15661 68.8752 3.90693Z" fill="white"/>
<path d="M69.654 4.25303C69.3944 4.07998 69.1348 3.99345 68.8752 3.90693C64.895 2.34946 59.2708 3.12819 52.4352 7.62755C52.4352 7.62755 54.0792 7.54103 56.5885 7.88713C61.6936 4.68566 66.1064 3.73388 69.654 4.25303Z" fill="#F9F8FA"/>
<path d="M29.0729 28.134C29.0729 28.134 35.6489 17.4048 45.1667 11.4345C45.1667 11.4345 56.5882 9.09828 65.8465 16.28C73.1147 21.9907 75.0183 28.9993 75.0183 28.9993C75.0183 28.9993 74.9317 30.9894 74.5856 33.8448C73.98 38.6902 72.4225 46.1315 68.6153 51.3231C68.6153 51.3231 64.8082 39.8151 52.3484 32.7199C40.4943 25.7978 29.0729 28.134 29.0729 28.134Z" fill="#EF7028"/>
<path d="M65.9325 16.2804C61.087 12.4732 55.5494 11.3484 51.4826 11.0888C48.2812 13.7711 42.4839 19.2223 36.7732 27.7884C41.0995 28.1345 46.6372 29.2593 52.4344 32.6338C58.5778 36.1814 62.6445 40.7673 65.1538 44.4879C70.1723 34.7105 71.8163 27.5288 72.422 23.3755C70.951 21.2124 68.8744 18.7031 65.9325 16.2804Z" fill="#EF7028"/>
<path d="M51.483 11.0885C47.8489 10.9154 45.2531 11.4346 45.2531 11.4346C35.7352 17.4049 29.1592 28.1341 29.1592 28.1341C29.1592 28.1341 32.2742 27.5285 36.8601 27.8746C42.3977 19.2219 48.2815 13.7708 51.483 11.0885Z" fill="#EF7028"/>
<path d="M66.6798 28.5969C68.9019 24.7482 66.9124 19.4395 62.236 16.7395C57.5597 14.0396 51.9674 14.9708 49.7453 18.8195C47.5232 22.6681 49.5127 27.9769 54.1891 30.6768C58.8654 33.3768 64.4577 32.4456 66.6798 28.5969Z" fill="black"/>
<path d="M58.4921 22.3366C61.2609 23.9806 63.3376 26.0572 64.2028 28.0473C64.2028 27.9608 64.2894 27.9608 64.2894 27.8743C65.6738 25.4515 63.9433 21.8174 60.4822 19.8273C57.1077 17.9238 53.3871 18.0968 51.8296 20.1734C53.7332 20.26 56.1559 21.0387 58.4921 22.3366Z" fill="white"/>
<path d="M50.8774 36.0949C40.4942 30.1246 29.765 29.5189 27.1692 34.1048C25.2656 37.4793 28.0345 42.9304 33.7452 48.0355C34.5239 46.478 35.5622 45.3532 36.341 44.5744C33.4856 41.8921 32.0147 39.3829 32.8799 37.9119C34.2643 35.5757 41.0999 36.9601 48.2816 41.1134C55.4633 45.2666 60.1357 50.4582 58.7513 52.8809C57.886 54.3519 54.8576 54.3519 50.9639 53.1405C50.2717 54.9576 49.3199 56.1689 48.6277 56.9477C56.242 59.63 62.818 59.4569 64.8081 55.9959C67.4904 51.2369 61.2605 42.0652 50.8774 36.0949Z" fill="white"/>
<path d="M48.368 40.5073C41.1863 36.3541 34.1777 35.4888 32.7933 37.825C31.928 39.296 33.399 41.7187 36.3408 44.4875C36.5139 44.3145 36.7735 44.1414 36.9465 43.9684C36.0813 42.6705 35.8217 41.5457 36.3408 40.6804C37.4657 38.6903 42.4842 39.469 47.4162 42.3244C52.4347 45.1798 55.5497 49.16 54.4248 51.1501C53.9057 52.0153 52.7808 52.3614 51.2234 52.1884C51.1368 52.448 51.0503 52.621 50.9638 52.8806C54.944 54.1785 57.8859 54.1785 58.7511 52.7075C60.049 50.4579 55.5497 44.5741 48.368 40.5073Z" fill="#EF7028"/>
</svg>
