<svg width="278" height="352" viewBox="0 0 278 352" fill="none" xmlns="http://www.w3.org/2000/svg">
<g clip-path="url(#clip0_49_23)">
<path d="M278 303.613C278 312.994 250.149 321.108 209.766 325.037C196.853 326.305 182.675 327.066 167.737 327.319C164.319 327.446 160.901 327.446 157.483 327.446C146.596 327.446 136.088 327.193 126.214 326.685C119.505 326.305 113.175 325.925 106.972 325.291C105.706 325.164 104.313 325.037 103.047 324.911C74.8169 322.122 52.9162 317.178 42.9153 311.093C38.9909 308.811 36.9654 306.276 36.9654 303.74C36.9654 295.627 57.6002 288.528 88.9954 284.218C97.224 283.077 106.212 282.189 115.707 281.429C116.34 281.429 116.973 281.302 117.606 281.302C125.708 280.795 134.189 280.414 142.924 280.161C146.849 280.034 150.773 280.034 154.824 280.034C155.71 280.034 156.597 280.034 157.356 280.034C174.573 280.034 190.777 280.668 205.588 282.063C248.25 285.485 278 293.852 278 303.613Z" fill="black"/>
<path d="M147.862 129.685C147.862 129.685 145.836 144.644 154.824 165.688C163.812 186.732 173.813 181.154 174.32 164.674C174.826 148.194 184.321 126.136 184.321 126.136L147.862 129.685Z" fill="white" stroke="black" stroke-width="2" stroke-miterlimit="10" stroke-linecap="round" stroke-linejoin="round"/>
<path d="M127.986 58.1872C130.012 70.8641 116.846 93.5559 127.227 111.938C131.531 119.544 147.608 135.517 156.343 136.024C165.078 136.531 194.828 121.318 200.145 111.177C205.462 101.035 196.853 47.5091 200.145 34.1982" fill="white"/>
<path d="M127.986 58.1872C130.012 70.8641 116.846 93.5559 127.227 111.938C131.531 119.544 147.608 135.517 156.343 136.024C165.078 136.531 194.828 121.318 200.145 111.177C205.462 101.035 196.853 47.5091 200.145 34.1982L156.343 28.6824L127.986 58.1872Z" stroke="black" stroke-width="2" stroke-miterlimit="10" stroke-linecap="round" stroke-linejoin="round"/>
<path d="M140.393 81.0058C141.861 81.0058 143.051 78.5085 143.051 75.428C143.051 72.3474 141.861 69.8501 140.393 69.8501C138.924 69.8501 137.734 72.3474 137.734 75.428C137.734 78.5085 138.924 81.0058 140.393 81.0058Z" fill="black"/>
<path d="M173.94 81.2595C175.408 81.2595 176.598 78.7622 176.598 75.6816C176.598 72.6011 175.408 70.1038 173.94 70.1038C172.472 70.1038 171.281 72.6011 171.281 75.6816C171.281 78.7622 172.472 81.2595 173.94 81.2595Z" fill="black"/>
<path d="M128.113 62.3708C128.113 62.3708 137.607 57.4268 144.444 63.2582C151.28 69.0896 142.924 86.8374 140.266 97.486C137.607 108.135 158.622 109.909 166.471 105.092C174.32 100.148 168.623 95.7112 168.623 95.7112" stroke="black" stroke-width="2" stroke-miterlimit="10" stroke-linecap="round" stroke-linejoin="round"/>
<path d="M171.535 62.1171C171.535 62.1171 177.611 57.2998 184.954 62.4974" stroke="black" stroke-width="2" stroke-miterlimit="10" stroke-linecap="round" stroke-linejoin="round"/>
<path d="M153.811 120.558C153.811 120.558 171.028 122.713 174.573 113.332" stroke="black" stroke-width="2" stroke-miterlimit="10" stroke-linecap="round" stroke-linejoin="round"/>
<path d="M203.31 78.217C203.31 78.217 207.234 64.1455 210.526 72.5123C213.817 80.8791 207.614 95.4577 203.689 95.4577C199.765 95.4577 201.917 82.1468 203.31 78.217Z" fill="white" stroke="black" stroke-width="2" stroke-miterlimit="10" stroke-linecap="round" stroke-linejoin="round"/>
<path d="M179.257 41.2C179.257 41.2 151.28 65.9201 132.924 61.9903C114.694 58.0604 109.63 43.989 109.63 43.989C109.63 43.989 117.606 42.0874 120.011 39.2985C136.215 2.15497 183.055 7.60606 189.384 14.7052C191.03 10.0147 182.928 1.26758 182.928 1.26758C182.928 1.26758 194.954 6.2116 194.701 15.4658C199.259 16.2264 204.955 16.7335 206.728 20.1563C205.335 20.4098 199.765 19.6492 199.765 23.579C199.765 27.5089 205.968 24.2129 212.551 45.1299C219.007 65.5398 206.095 76.6955 206.095 82.9073C206.095 89.119 202.55 88.3584 202.044 83.4143C201.664 78.4703 197.613 48.6794 179.257 41.2Z" fill="white" stroke="black" stroke-width="2" stroke-miterlimit="10" stroke-linecap="round" stroke-linejoin="round"/>
<path d="M152.166 43.4819C153.432 43.1016 163.939 38.4111 166.597 35.3686C169.256 32.1994 171.408 36.8899 168.75 40.4394C166.091 43.989 156.976 51.3416 153.052 50.581C149.128 49.6936 152.166 43.4819 152.166 43.4819Z" fill="white" stroke="black" stroke-width="2" stroke-miterlimit="10" stroke-linecap="round" stroke-linejoin="round"/>
<path d="M107.478 53.3698C107.478 53.3698 144.444 40.8196 150.14 42.2141C152.292 42.7212 158.495 44.1157 165.585 45.3834C170.016 46.144 174.826 47.0314 179.383 47.792C181.156 48.0455 182.928 48.2991 184.7 48.5526C190.017 49.3132 194.701 49.6935 197.36 49.44C206.728 48.6794 202.424 53.7502 194.448 55.9052C191.283 56.7926 185.08 57.5532 177.991 58.3139C167.737 59.328 155.457 59.9619 147.355 59.9619C133.683 59.9619 113.301 70.357 113.301 70.357L82.7924 80.1183L77.9818 63.6382L107.478 53.3698Z" fill="white" stroke="black" stroke-width="2" stroke-miterlimit="10" stroke-linecap="round" stroke-linejoin="round"/>
<path d="M244.706 196.366C244.326 194.591 243.566 192.943 242.3 191.422C231.287 178.492 185.586 167.589 186.093 163.66C186.599 159.603 186.726 157.194 184.194 150.729C181.662 144.264 152.799 154.279 148.241 150.729C143.811 147.18 140.266 160.871 137.228 166.195C135.582 169.111 104.06 167.463 98.8697 164.8C93.6794 162.138 48.2322 129.939 46.8397 114.853C52.9162 103.698 108.617 72.3854 108.617 72.3854C108.617 72.3854 93.173 65.5398 89.8816 58.821C74.8169 64.5257 0.506351 95.0772 1.26591 121.699C1.77229 139.573 73.4244 210.438 82.0328 222.354C90.6411 234.27 95.4517 295.627 101.022 318.319C114.694 327.066 156.723 329.474 186.852 323.136C181.409 324.53 177.738 325.291 177.738 325.291L182.928 349.25C182.928 349.25 254.707 350.645 271.417 308.938C280.658 271.287 255.719 214.875 244.706 196.366ZM232.426 293.979C231.413 304.374 218.248 312.107 204.955 317.178C204.829 317.304 204.829 317.431 204.702 317.431C199.638 319.713 193.562 321.615 186.979 323.009C191.916 321.741 198.372 319.84 204.955 317.304C207.234 313.882 216.096 273.189 221.033 262.16C225.337 275.47 234.198 274.456 232.426 293.979Z" fill="black" stroke="black" stroke-width="2" stroke-miterlimit="10" stroke-linecap="round" stroke-linejoin="round"/>
<path d="M204.955 317.305C204.829 317.431 204.829 317.558 204.702 317.558C199.638 319.84 193.562 321.742 186.979 323.136C192.043 321.742 198.499 319.84 204.955 317.305Z" fill="#EF7028" stroke="black" stroke-width="2" stroke-miterlimit="10" stroke-linecap="round" stroke-linejoin="round"/>
<path d="M125.454 301.458C125.454 307.924 132.417 312.36 134.443 319.079C137.228 327.953 129.126 323.389 126.847 320.727C124.442 318.065 117.479 303.106 125.454 301.458Z" fill="white" stroke="black" stroke-width="2" stroke-miterlimit="10" stroke-linecap="round" stroke-linejoin="round"/>
<path d="M183.055 349.124C183.055 349.124 176.472 349.884 166.471 350.391C156.343 351.025 146.849 350.518 126.847 343.039C123.429 341.771 102.161 351.025 97.7304 348.617C105.073 343.926 120.897 335.686 117.985 335.813C115.074 335.94 107.352 338.221 102.161 342.151C95.9581 346.969 95.3251 348.743 92.5401 347.983C89.755 347.222 93.9326 340.503 101.275 335.433C105.832 332.263 116.213 329.855 116.213 329.348C116.087 327.953 106.972 329.981 100.642 333.531C90.5146 339.236 84.4381 344.814 83.5519 340.884C82.6657 336.954 89.6284 333.151 96.8442 328.333C104.06 323.516 112.795 320.981 112.036 320.981C111.403 320.981 106.592 320.854 100.515 323.516C92.6667 326.939 84.0583 336.827 82.1594 333.785C80.3871 330.742 96.4645 318.065 96.7177 317.938C101.908 315.023 116.087 312.107 118.998 312.107C121.91 312.107 144.823 326.559 161.407 326.305C177.991 326.052 177.864 326.052 177.864 326.052L183.055 349.124Z" fill="white" stroke="black" stroke-width="2" stroke-miterlimit="10" stroke-linecap="round" stroke-linejoin="round"/>
<path d="M204.955 317.305C204.829 317.431 204.829 317.558 204.702 317.558C199.638 319.84 193.562 321.742 186.979 323.136C192.043 321.742 198.499 319.84 204.955 317.305Z" fill="#EF7028" stroke="black" stroke-width="2" stroke-miterlimit="10" stroke-linecap="round" stroke-linejoin="round"/>
<path d="M221.033 233.129C221.033 233.129 216.855 238.454 221.159 262.16" stroke="black" stroke-width="2" stroke-miterlimit="10" stroke-linecap="round" stroke-linejoin="round"/>
<path d="M89.8816 199.155C89.8816 199.155 86.4636 212.846 82.0328 222.227" stroke="black" stroke-width="2" stroke-miterlimit="10" stroke-linecap="round" stroke-linejoin="round"/>
</g>
<defs>
<clipPath id="clip0_49_23">
<rect width="278" height="351.913" fill="white"/>
</clipPath>
</defs>
</svg>
