<svg width="127" height="107" viewBox="0 0 127 107" fill="none" xmlns="http://www.w3.org/2000/svg">
<g clip-path="url(#clip0_69_102)">
<path d="M126.3 59.8237V60.3657C126.3 64.4066 126.201 68.2995 126.004 72.0447C126.004 72.3403 125.955 72.636 125.955 72.8824C125.906 73.6709 125.856 74.41 125.807 75.1492C125.709 76.6275 125.61 78.1059 125.462 79.4857C125.413 80.0277 125.364 80.5205 125.314 81.0133C125.216 81.851 125.167 82.6395 125.068 83.4772C124.92 84.857 124.723 86.2368 124.526 87.518C123.393 95.304 121.816 101.316 119.943 104.371C119.056 105.899 118.071 106.687 117.085 106.687C113.931 106.687 111.172 98.6549 109.496 86.4339C109.496 86.3353 109.496 86.2861 109.447 86.1875C109.398 85.9411 109.398 85.6947 109.348 85.4483C109.25 84.5121 109.102 83.5758 109.003 82.5902C108.757 80.5205 108.56 78.3523 108.412 76.1348C108.412 76.0855 108.412 76.0855 108.412 76.0362C108.412 75.7898 108.363 75.5434 108.363 75.2478C108.166 72.094 108.018 68.7923 107.919 65.3428C107.87 64.3573 107.87 63.3717 107.87 62.3862C107.87 61.8441 107.87 61.302 107.87 60.76C107.87 60.415 107.87 60.0701 107.87 59.7744C107.87 54.9451 108.018 50.313 108.264 45.9272C108.264 45.6808 108.313 45.4837 108.313 45.2373C108.412 43.8083 108.511 42.3792 108.609 40.9994C108.658 40.3588 108.708 39.7182 108.806 39.0776C110.285 23.5549 113.438 12.8616 117.085 12.8616C120.682 12.8616 123.787 23.2593 125.314 38.4862C125.364 38.7819 125.364 39.1268 125.413 39.4225C125.561 41.0487 125.709 42.7242 125.807 44.3996C126.054 47.9969 126.201 51.8406 126.3 55.7829C126.3 57.1134 126.3 58.4439 126.3 59.8237Z" fill="black"/>
<path d="M104.47 39.1761C92.1009 39.0776 80.1756 38.8312 73.9173 38.3384C54.0582 38.092 47.652 19.0706 53.8611 8.96858C55.9307 5.56839 53.5161 0.591291 49.5739 1.03479C33.2135 2.90737 30.7003 25.0825 33.2628 33.7555C23.21 35.6281 -15.6705 108.461 69.5315 80.4712C72.981 80.6683 78.648 81.0133 85.3991 81.3582" fill="white"/>
<path d="M104.47 39.1761C92.1009 39.0776 80.1756 38.8312 73.9173 38.3384C54.0582 38.092 47.652 19.0706 53.8611 8.96858C55.9307 5.56839 53.5161 0.591291 49.5739 1.03479C33.2135 2.90737 30.7003 25.0825 33.2628 33.7555C23.21 35.6281 -15.6705 108.461 69.5315 80.4712C72.981 80.6683 78.648 81.0133 85.3991 81.3582" stroke="black" stroke-width="4" stroke-miterlimit="10" stroke-linecap="round" stroke-linejoin="round"/>
<path d="M124.822 59.8237V60.3658C124.822 64.4066 124.723 68.2996 124.526 72.0447C124.526 72.3404 124.477 72.636 124.477 72.8824C124.427 73.6709 124.378 74.41 124.329 75.1492C124.23 76.6276 124.132 78.1059 123.984 79.4857C123.935 80.0278 123.885 80.5205 123.836 81.0133C123.738 81.8511 123.688 82.6395 123.59 83.4772C123.442 84.857 123.245 86.2368 123.048 87.5181C118.071 86.9267 112.995 86.2368 107.87 85.4484C100.527 84.315 93.0372 82.9845 85.3991 81.3583C84.5614 81.2104 83.7236 81.0133 82.9352 80.8162C92.8894 57.8526 90.3762 39.4718 90.3762 39.4718C90.3762 39.4718 95.6982 39.3733 104.47 39.0776C105.406 39.0283 106.342 39.0283 107.328 38.979C112.059 38.8312 117.627 38.6341 123.836 38.3877C123.885 38.6834 123.885 39.0283 123.935 39.324C124.082 40.9502 124.23 42.6256 124.329 44.3011C124.575 47.8984 124.723 51.7421 124.822 55.6843C124.822 57.1134 124.822 58.4439 124.822 59.8237Z" fill="#EF7028" stroke="black" stroke-width="4" stroke-miterlimit="10" stroke-linecap="round" stroke-linejoin="round"/>
<path d="M11.6789 46.6665C8.42656 49.1304 -2.41464 44.4983 2.06968 37.3529C6.55399 30.2076 29.222 29.4191 34.6918 35.1847C40.1617 40.9502 35.8745 48.9333 29.5176 48.2434" fill="white"/>
<path d="M11.6789 46.6665C8.42656 49.1304 -2.41464 44.4983 2.06968 37.3529C6.55399 30.2076 29.222 29.4191 34.6918 35.1847C40.1617 40.9502 35.8745 48.9333 29.5176 48.2434" stroke="black" stroke-width="4" stroke-miterlimit="10" stroke-linecap="round" stroke-linejoin="round"/>
<path d="M9.46142 61.7948C9.46142 61.7948 -2.80885 59.6266 2.51319 51.3971C7.83524 43.1677 28.3842 44.646 32.4251 49.7217C36.4659 54.7973 34.1005 61.1049 29.0741 61.6963" fill="white"/>
<path d="M9.46142 61.7948C9.46142 61.7948 -2.80885 59.6266 2.51319 51.3971C7.83524 43.1677 28.3842 44.646 32.4251 49.7217C36.4659 54.7973 34.1005 61.1049 29.0741 61.6963" stroke="black" stroke-width="4" stroke-miterlimit="10" stroke-linecap="round" stroke-linejoin="round"/>
<path d="M12.1717 74.3115C12.1717 74.3115 0.591334 76.2826 2.16824 68.0532C3.74514 59.8237 24.442 53.7625 32.3758 64.5051C40.3096 75.2478 28.4335 75.1985 25.1319 77.1696" fill="white"/>
<path d="M12.1717 74.3115C12.1717 74.3115 0.591334 76.2826 2.16824 68.0532C3.74514 59.8237 24.442 53.7625 32.3758 64.5051C40.3095 75.2478 28.4335 75.1985 25.1319 77.1696" stroke="black" stroke-width="4" stroke-miterlimit="10" stroke-linecap="round" stroke-linejoin="round"/>
<path d="M76.9725 75.0014C32.2772 107.279 -3.20309 87.0746 5.07565 77.8103C10.989 71.5027 21.5346 72.439 26.3638 73.6216C31.9323 74.9522 35.6774 81.4569 29.9119 85.4977" fill="white"/>
<path d="M76.9725 75.0014C32.2772 107.279 -3.20309 87.0746 5.07565 77.8103C10.989 71.5027 21.5346 72.439 26.3638 73.6216C31.9323 74.9522 35.6774 81.4569 29.9119 85.4977" stroke="black" stroke-width="4" stroke-miterlimit="10" stroke-linecap="round" stroke-linejoin="round"/>
</g>
<defs>
<clipPath id="clip0_69_102">
<rect width="126.3" height="106.737" fill="white"/>
</clipPath>
</defs>
</svg>
