<svg width="140" height="115" viewBox="0 0 140 115" fill="none" xmlns="http://www.w3.org/2000/svg">
<path d="M70.2 31.4C108.694 31.4 139.9 24.3709 139.9 15.7C139.9 7.02913 108.694 0 70.2 0C31.7057 0 0.5 7.02913 0.5 15.7C0.5 24.3709 31.7057 31.4 70.2 31.4Z" fill="black"/>
<path d="M42.5 98.1C42.5 98.1 52.7 98.2 61.6 95.7C70.5 93.2 69.9 93.2 73.3 92.2C76.7 91.2 89.6 97.2 93.4 96.2C97.2 95.2 95.8 83 93.3 80.5C95.7 79.3 102.1 74.5 105.4 68.2C105.9 67.2 96.9 63.5 97.2 62.4C97.7 61 107.4 62.2 107.5 60.7C107.6 56.2 105.4 51.3 99.3 46.7C92.3 41.8 88.7 37.5 86.9 33" stroke="black" stroke-width="2" stroke-miterlimit="10" stroke-linecap="round" stroke-linejoin="round"/>
<path d="M94.1 42.6C94.1 42.6 101.8 24.3 96.6 3.70001C65.7 2.70001 53.4 3.20001 39.6 5.50001C54 14.4 68.4 20.4 67.2 32.5" fill="white"/>
<path d="M94.1 42.6C94.1 42.6 101.8 24.3 96.6 3.70001C65.7 2.70001 53.4 3.20001 39.6 5.50001C54 14.4 68.4 20.4 67.2 32.5" stroke="black" stroke-width="2" stroke-miterlimit="10" stroke-linecap="round" stroke-linejoin="round"/>
<path d="M60.9 18.8C60.9 18.8 76.9 16.8 96.6 3.60001C69.7 1.20001 45.7 3.40001 36.5 4.80001C46.6 10.3 60.9 18.8 60.9 18.8Z" fill="#EF7028" stroke="black" stroke-width="2" stroke-miterlimit="10" stroke-linecap="round" stroke-linejoin="round"/>
<path d="M68.2637 88.8773C70.5022 88.0846 72.018 86.598 71.6493 85.5568C71.2806 84.5156 69.167 84.3142 66.9285 85.1069C64.69 85.8996 63.1742 87.3863 63.5429 88.4275C63.9116 89.4686 66.0252 89.67 68.2637 88.8773Z" fill="black"/>
<path d="M56.9 93C56.9 93 53.5 89.9 55.5 84" stroke="black" stroke-width="3" stroke-miterlimit="10" stroke-linecap="round" stroke-linejoin="round"/>
<path d="M74.3 38.9C74.3 38.9 61 25.6 52.2 36C45.6 43.8 53.8 49.2 58.7 48.8C58.9 56.4 57.3 64.2 52.2 70.3C47.1 76.4 47.1 77 47.2 87C47.3 97 40.8 114.1 30.4 114C28.7 106.9 21.3 100 16.8 95.5C8.90001 87.6 -0.89999 69.8 8.80001 47.2C16.8 27.5 31.5 26 42 23.2C47.9 21.6 53.3 18.1 54.4 11.9C62.4 18.9 66.9 23.8 67.3 32.5" fill="white"/>
<path d="M74.3 38.9C74.3 38.9 61 25.6 52.2 36C45.6 43.8 53.8 49.2 58.7 48.8C58.9 56.4 57.3 64.2 52.2 70.3C47.1 76.4 47.1 77 47.2 87C47.3 97 40.8 114.1 30.4 114C28.7 106.9 21.3 100 16.8 95.5C8.90001 87.6 -0.89999 69.8 8.80001 47.2C16.8 27.5 31.5 26 42 23.2C47.9 21.6 53.3 18.1 54.4 11.9C62.4 18.9 66.9 23.8 67.3 32.5" stroke="black" stroke-width="2" stroke-miterlimit="10" stroke-linecap="round" stroke-linejoin="round"/>
<path d="M47.2 85.3C47.2 85.3 46.6 75.9 42.9 68.1" stroke="black" stroke-width="2" stroke-miterlimit="10" stroke-linecap="round" stroke-linejoin="round"/>
</svg>
