<svg width="125" height="145" viewBox="0 0 125 145" fill="none" xmlns="http://www.w3.org/2000/svg">
<g clip-path="url(#clip0_142_386)">
<path d="M111.2 118.9C118.8 108.7 123.3 96.1 123.3 82.4C123.3 48.8 96 21.5 62.4 21.5C28.8 21.5 1.50003 48.8 1.50003 82.4C1.50003 88.4 2.40003 94.3 4.00003 99.8C4.00003 99.8 1.30003 109.6 5.00003 117.8C5.00003 117.8 1.20003 123.2 1.50003 132.1C1.50003 132.1 51.5 157.1 122.1 132.2L111.2 118.9Z" fill="#EF7028" stroke="#1D1D1B" stroke-width="3" stroke-miterlimit="10" stroke-linecap="round" stroke-linejoin="round"/>
<path d="M2.8999 95.2998H16.5999" stroke="#1D1D1B" stroke-width="3" stroke-miterlimit="10" stroke-linecap="round" stroke-linejoin="round"/>
<path d="M87.3 117.8L89.9 140.6" stroke="#1D1D1B" stroke-width="3" stroke-miterlimit="10" stroke-linecap="round" stroke-linejoin="round"/>
<path d="M70.8 114V142.2" stroke="#1D1D1B" stroke-width="3" stroke-miterlimit="10" stroke-linecap="round" stroke-linejoin="round"/>
<path d="M54.3 107.4L51.8 143.1" stroke="#1D1D1B" stroke-width="3" stroke-miterlimit="10" stroke-linecap="round" stroke-linejoin="round"/>
<path d="M33 111.7L29.2 140.5" stroke="#1D1D1B" stroke-width="3" stroke-miterlimit="10" stroke-linecap="round" stroke-linejoin="round"/>
<path d="M62.6 12.1C65.5272 12.1 67.9001 9.72711 67.9001 6.8C67.9001 3.87289 65.5272 1.5 62.6 1.5C59.6729 1.5 57.3 3.87289 57.3 6.8C57.3 9.72711 59.6729 12.1 62.6 12.1Z" stroke="#1D1D1B" stroke-width="3" stroke-miterlimit="10" stroke-linecap="round" stroke-linejoin="round"/>
<path d="M62.6001 12V21.5" stroke="#1D1D1B" stroke-width="3" stroke-miterlimit="10" stroke-linecap="round" stroke-linejoin="round"/>
<path d="M79.5001 23.8999C78.2001 24.1999 36.0001 33.8999 31.5001 78.7999L31.1001 92.1999L47.4001 103.1C47.4001 103.1 68.8001 120.1 111.1 118.8C118.7 108.6 123.2 95.9999 123.2 82.2999C123.3 54.6999 104.8 31.2999 79.5001 23.8999Z" fill="white" stroke="#1D1D1B" stroke-width="3" stroke-miterlimit="10" stroke-linecap="round" stroke-linejoin="round"/>
<path d="M33.0001 111.7C42.0576 111.7 49.4001 104.357 49.4001 95.2999C49.4001 86.2424 42.0576 78.8999 33.0001 78.8999C23.9426 78.8999 16.6001 86.2424 16.6001 95.2999C16.6001 104.357 23.9426 111.7 33.0001 111.7Z" fill="white" stroke="#1D1D1B" stroke-width="3" stroke-miterlimit="10" stroke-linecap="round" stroke-linejoin="round"/>
<path d="M33 101.8C36.5899 101.8 39.5 98.8897 39.5 95.2998C39.5 91.71 36.5899 88.7998 33 88.7998C29.4101 88.7998 26.5 91.71 26.5 95.2998C26.5 98.8897 29.4101 101.8 33 101.8Z" fill="white" stroke="#1D1D1B" stroke-width="3" stroke-miterlimit="10" stroke-linecap="round" stroke-linejoin="round"/>
<path d="M98.2 46.7998C103.7 52.2998 109.8 61.3998 109.8 74.6998" stroke="black" stroke-width="3" stroke-miterlimit="10" stroke-linecap="round" stroke-linejoin="round"/>
<path d="M89.3999 40.1001C89.3999 40.1001 91.1999 41.0001 93.6999 42.9001" stroke="black" stroke-width="3" stroke-miterlimit="10" stroke-linecap="round" stroke-linejoin="round"/>
</g>
<defs>
<clipPath id="clip0_142_386">
<rect width="124.8" height="144.7" fill="white"/>
</clipPath>
</defs>
</svg>
