<svg width="326" height="262" viewBox="0 0 326 262" fill="none" xmlns="http://www.w3.org/2000/svg">
<path d="M47.4145 186.529C43.3381 198.785 45.1617 197.172 41.2999 201.795C36.2582 207.815 35.8291 199.967 36.6872 197.172C37.4381 194.269 42.909 180.508 47.4145 186.529Z" fill="white" stroke="black" stroke-width="2" stroke-miterlimit="10" stroke-linecap="round" stroke-linejoin="round"/>
<path d="M326 222.759C326 230.715 302.4 237.596 268.181 240.928C254.771 242.219 239.753 242.971 223.877 242.971C208.537 242.971 194.055 242.326 181.076 241.143C179.896 241.036 178.823 240.928 177.75 240.821C153.828 238.456 135.378 234.263 126.903 229.21C123.578 227.275 121.861 225.125 121.861 222.974C121.861 216.094 139.347 210.073 165.95 206.418C172.923 205.45 180.539 204.698 188.585 204.053C195.986 203.515 203.71 203.193 211.755 202.978C215.724 202.87 219.801 202.87 223.984 202.87C238.573 202.87 252.304 203.515 264.855 204.59C300.791 207.493 326 214.589 326 222.759Z" fill="black"/>
<path d="M38.2963 110.197C32.1818 100.199 35.8291 81.277 35.2927 72.0312C34.7563 62.7854 38.2963 51.6044 47.9508 58.055C57.6053 64.5055 65.6507 66.8707 65.6507 77.1916C65.6507 83.4271 59.3217 95.6832 56.9617 109.874C58.4635 119.98 66.8307 127.828 66.8307 127.828L53.6362 137.074C53.6362 137.074 43.1236 131.699 38.2963 110.197Z" fill="white" stroke="black" stroke-width="2" stroke-miterlimit="10" stroke-linecap="round" stroke-linejoin="round"/>
<path d="M62.9689 46.7667L49.7744 43.6489C45.698 42.6813 41.6217 45.2616 40.6563 49.4544L29.6072 95.7909C28.6418 99.9838 31.109 104.177 35.1854 105.144L48.3798 108.262C52.4562 109.23 56.5325 106.649 57.498 102.456L68.4397 56.12C69.5125 51.9271 67.0452 47.7343 62.9689 46.7667Z" fill="black"/>
<path d="M67.367 57.1949L64.0416 71.1711L62.2179 79.0193L56.8543 101.919C55.8889 105.897 52.2416 108.477 48.5944 107.617L36.7945 104.822C33.1472 103.961 31.0018 99.9836 31.9672 96.0058L42.4799 51.2819C43.4453 47.3041 47.0926 44.7239 50.7398 45.584L62.5398 48.3792C66.187 49.1318 68.3325 53.1096 67.367 57.1949Z" fill="white" stroke="black" stroke-width="2" stroke-miterlimit="10" stroke-linecap="round" stroke-linejoin="round"/>
<path d="M64.1488 71.1711C67.0451 73.5363 65.7578 80.847 62.3251 79.0193C60.6088 77.1917 58.2488 75.364 54.9234 74.6114C49.5597 73.4288 50.2034 69.7735 56.5324 69.666C59.6433 69.666 62.1106 70.2036 64.1488 71.1711Z" fill="white" stroke="black" stroke-width="2" stroke-miterlimit="10" stroke-linecap="round" stroke-linejoin="round"/>
<path d="M41.6217 53.4321C38.5108 54.6147 37.009 57.6249 35.1854 62.4629C33.1472 67.8383 31.6454 72.3537 33.469 77.1916C35.0781 81.707 40.1199 80.5244 40.8708 78.5892C41.5145 76.9766 35.829 71.0636 33.6836 70.6336C35.0781 71.2786 42.5872 76.1165 44.3035 72.9988C46.449 68.9134 34.649 65.3656 34.649 65.3656C34.649 65.3656 44.7326 69.666 46.2344 66.5482C47.7362 63.3229 38.6181 59.1301 38.6181 59.1301C38.6181 59.1301 46.2344 63.3229 47.7362 59.6676C49.2381 56.0123 44.8399 52.2495 41.6217 53.4321Z" fill="white" stroke="black" stroke-width="2" stroke-miterlimit="10" stroke-linecap="round" stroke-linejoin="round"/>
<path d="M205.534 151.481C205.534 151.481 147.607 168.897 120.038 161.479C99.4414 155.996 64.578 125.249 64.578 125.249C64.578 125.249 62.8616 128.581 50.8472 135.032C62.8616 164.812 82.4925 183.949 115.64 196.205C144.496 206.848 192.017 201.043 224.092 193.409C235.248 190.614 221.839 150.298 205.534 151.481Z" fill="#EF7028" stroke="black" stroke-width="2" stroke-miterlimit="10" stroke-linecap="round" stroke-linejoin="round"/>
<path d="M189.121 107.724C190.73 119.98 196.201 131.161 196.201 131.161C196.201 131.161 239.217 136.429 228.168 125.248C217.119 114.067 224.735 85.3623 224.735 85.3623" stroke="black" stroke-width="2" stroke-miterlimit="10" stroke-linecap="round" stroke-linejoin="round"/>
<path d="M201.243 88.1577C201.243 88.1577 220.444 81.7071 214.652 68.2685C210.361 58.1626 201.243 63.4305 199.204 68.376C191.803 64.9357 186.225 57.5175 182.792 49.6694C179.359 41.8212 180.217 38.9184 170.563 34.188C160.908 29.4576 152.005 24.6197 157.154 14.6214C165.092 16.3415 169.383 13.9763 175.39 10.536C180.003 7.95579 198.883 4.94553 214.008 12.0411C215.51 12.6862 213.686 8.0633 213.686 1.0752C218.835 2.58032 218.406 15.1589 219.586 16.1265C220.552 16.9866 225.808 11.7186 229.777 14.8364C226.452 16.019 223.877 20.3193 224.628 21.1794C239.753 38.3809 231.386 54.1848 229.133 65.5807C227.846 72.0313 227.417 80.5245 236.642 81.9221C226.023 86.2225 216.904 86.6525 210.683 84.3948" stroke="black" stroke-width="2" stroke-miterlimit="10" stroke-linecap="round" stroke-linejoin="round"/>
<path d="M160.694 28.3823C160.694 28.3823 154.686 38.9182 152.863 48.7016C151.039 58.4849 151.254 57.8399 150.61 61.6027C149.859 65.3655 139.454 69.1283 138.596 73.2137C137.737 77.299 148.679 87.6199 152.219 86.4373C152.219 88.91 149.859 93.7479 156.188 94.9305C162.625 96.1131 159.192 100.844 160.801 104.069C163.805 110.519 173.888 112.455 181.826 108.477C189.872 104.176 195.772 102.671 200.921 103.209" stroke="black" stroke-width="2" stroke-miterlimit="10" stroke-linecap="round" stroke-linejoin="round"/>
<path d="M160.404 58.8562C160.717 56.3225 160.018 54.1501 158.842 54.004C157.666 53.8579 156.459 55.7935 156.146 58.3273C155.832 60.861 156.532 63.0334 157.708 63.1795C158.883 63.3256 160.091 61.39 160.404 58.8562Z" fill="black"/>
<path d="M157.69 45.4767C157.69 45.4767 162.303 43.6491 166.916 48.487" stroke="black" stroke-width="3" stroke-miterlimit="10" stroke-linecap="round" stroke-linejoin="round"/>
<path d="M223.77 242.864C208.43 242.864 193.948 242.219 180.968 241.036C181.183 239.746 181.397 238.348 181.612 237.166C184.401 221.577 186.546 211.363 188.37 203.945C188.692 202.44 189.121 201.042 189.443 199.752C193.519 183.733 194.806 182.336 194.163 154.598C194.163 153.308 194.055 152.018 194.055 150.621C193.948 145.675 193.734 139.977 193.519 133.312C193.948 131.807 194.592 130.516 195.235 129.441C200.17 122.023 210.361 125.141 224.092 118.905C225.057 118.475 226.023 118.045 226.988 117.508C251.017 147.825 259.599 165.564 264.641 204.483C265.713 213.084 266.679 222.759 267.537 233.94C267.751 236.413 267.859 238.778 268.073 241.036C254.771 242.219 239.646 242.864 223.77 242.864Z" fill="#EF7028" stroke="black" stroke-width="2" stroke-miterlimit="10" stroke-linecap="round" stroke-linejoin="round"/>
<path d="M80.9905 254.475C80.9905 254.475 36.5799 237.918 31.5381 231.038C26.4963 224.157 26.9254 223.297 23.0636 205.665C22.4199 202.655 4.72004 197.172 4.39823 192.872C11.0491 195.882 25.6381 198.462 25.5308 197.172C25.209 195.13 2.46733 189.754 2.03824 185.991C1.60915 182.228 28.1054 195.345 28.9635 191.904C19.8454 189.647 -5.25626 175.885 2.5746 175.24C3.86187 175.133 29.929 188.571 29.2854 187.389C28.6417 186.206 6.86549 172.768 8.04548 172.123C10.2982 170.94 29.1781 181.046 39.2617 187.174C44.9471 196.742 40.4417 218.889 48.8089 222.114L89.7868 231.575L80.9905 254.475Z" fill="white" stroke="black" stroke-width="2" stroke-miterlimit="10" stroke-linecap="round" stroke-linejoin="round"/>
<path d="M226.988 177.068C229.777 174.272 200.814 229.425 158.656 254.474C130.121 271.461 67.5816 249.636 67.5816 249.636C67.5816 249.636 65.9725 230.93 71.6579 228.457C77.3433 225.984 116.819 234.478 145.783 224.909C174.746 215.341 185.474 142.987 204.89 142.987" fill="#EF7028"/>
<path d="M226.988 177.068C229.777 174.272 200.814 229.425 158.656 254.474C130.121 271.461 67.5816 249.636 67.5816 249.636C67.5816 249.636 65.9725 230.93 71.6579 228.457C77.3433 225.984 116.819 234.478 145.783 224.909C174.746 215.341 185.474 142.987 204.89 142.987" stroke="black" stroke-width="2" stroke-miterlimit="10" stroke-linecap="round" stroke-linejoin="round"/>
<path d="M194.163 141.912C194.163 141.912 198.346 135.354 208.752 132.881C215.617 131.269 230.421 129.226 232.459 126.431" stroke="black" stroke-width="2" stroke-miterlimit="10" stroke-linecap="round" stroke-linejoin="round"/>
<path d="M223.555 120.303L227.953 128.258" stroke="black" stroke-width="2" stroke-miterlimit="10" stroke-linecap="round" stroke-linejoin="round"/>
<path d="M217.87 121.916L221.731 129.871" stroke="black" stroke-width="2" stroke-miterlimit="10" stroke-linecap="round" stroke-linejoin="round"/>
<path d="M212.184 122.99L215.402 130.946" stroke="black" stroke-width="2" stroke-miterlimit="10" stroke-linecap="round" stroke-linejoin="round"/>
<path d="M205.855 124.388L208.752 132.881" stroke="black" stroke-width="2" stroke-miterlimit="10" stroke-linecap="round" stroke-linejoin="round"/>
<path d="M200.599 125.786L202.208 134.386" stroke="black" stroke-width="2" stroke-miterlimit="10" stroke-linecap="round" stroke-linejoin="round"/>
<path d="M196.201 129.119L197.595 137.827" stroke="black" stroke-width="2" stroke-miterlimit="10" stroke-linecap="round" stroke-linejoin="round"/>
</svg>
