<svg width="291" height="290" viewBox="0 0 291 290" fill="none" xmlns="http://www.w3.org/2000/svg">
<g clip-path="url(#clip0_85_210)">
<path d="M1.62027 262.489C9.31654 266.211 15.5546 272.441 19.2812 280.128C20.8204 276.811 22.8458 273.817 25.2762 271.066C28.5977 267.506 32.5674 264.593 36.9421 262.489C29.2458 258.767 23.0078 252.455 19.2812 244.688C15.5546 252.455 9.31654 258.686 1.62027 262.489Z" fill="white"/>
<path d="M29.6509 60.8481C40.5067 61.4145 50.8764 56.155 56.7904 47.0116C62.7043 37.8682 63.2714 26.2973 58.3296 16.5875C53.4688 6.87769 43.6662 0.566305 32.8104 -0.000101449H31.1901C20.3343 -0.242847 10.1267 5.25938 4.45573 14.5646C-1.21521 23.8699 -1.53926 35.4407 3.72661 44.9887C8.99248 54.5367 18.7951 60.5244 29.6509 60.8481Z" fill="white"/>
<path d="M45.4485 162.397C47.3928 197.918 66.593 230.365 96.811 249.219C127.029 268.072 164.538 271.147 197.43 257.391C230.321 243.636 254.463 214.749 262.159 180.036C256.974 174.858 233.724 156.328 187.06 179.308C173.369 185.619 158.462 188.775 143.394 188.371C102.401 188.532 60.517 169.922 45.4485 162.397Z" fill="white"/>
<path d="M200.994 71.6098C202.047 69.8297 204.316 69.2633 206.098 70.3152C212.012 73.8755 217.602 78.0021 222.625 82.6952C223.759 83.7471 224.083 85.3654 223.516 86.8219C222.949 88.2784 221.572 89.1684 220.032 89.2493C219.141 89.2493 218.25 88.9257 217.521 88.2784C212.822 83.9089 207.718 80.1059 202.209 76.7884C201.318 76.3029 200.751 75.4938 200.508 74.5228C200.346 73.4709 200.508 72.419 200.994 71.6098ZM251.303 159.888C249.278 159.888 247.577 158.27 247.577 156.166C247.577 149.774 246.929 143.463 245.633 137.151C245.389 136.18 245.551 135.128 246.119 134.238C246.686 133.348 247.577 132.782 248.549 132.62C249.521 132.377 250.574 132.539 251.465 133.024C252.357 133.591 252.924 134.481 253.086 135.452C254.544 142.168 255.192 149.046 255.192 156.004C255.192 157.056 254.787 158.027 254.058 158.755C253.41 159.565 252.357 159.969 251.303 159.888ZM244.741 120.887C244.255 121.13 243.769 121.211 243.202 121.211C241.744 121.211 240.367 120.321 239.8 119.026C237.207 113.2 234.048 107.617 230.321 102.439C229.106 100.739 229.511 98.4737 231.212 97.2599C232.022 96.6935 232.994 96.4508 233.967 96.6126C234.939 96.7744 235.83 97.3409 236.397 98.15C240.448 103.814 243.931 109.883 246.686 116.275C247.334 118.055 246.524 120.078 244.741 120.887ZM163.08 60.2008C163.404 58.1779 165.186 56.7214 167.293 56.9642C174.179 57.7733 180.903 59.3107 187.465 61.4954C189.166 62.1427 190.219 63.842 189.895 65.6221C189.571 67.4022 187.951 68.7778 186.169 68.7778C185.764 68.8587 185.359 68.8587 184.953 68.7778C178.958 66.674 172.72 65.2984 166.32 64.4893C165.348 64.3275 164.376 63.842 163.809 63.0328C163.161 62.3046 162.918 61.2527 163.08 60.2008ZM45.2865 154.062C58.4106 160.697 134.077 197.19 183.738 172.754C227.81 150.826 253.329 163.125 263.78 171.378C264.509 166.362 264.833 161.264 264.833 156.166C265.238 117.003 244.66 80.5914 210.878 60.6054C177.095 40.6193 135.292 40.3766 101.105 59.6344C66.917 78.8922 45.6915 114.899 45.2865 154.062Z" fill="white"/>
<path d="M273.258 66.5123C277.066 58.8254 283.304 52.5949 291 48.8728C283.304 45.1507 277.066 39.0012 273.339 31.3142C271.8 34.6317 269.774 37.6256 267.344 40.3767C264.023 44.0179 260.053 46.9308 255.678 49.1155C263.374 52.7567 269.531 58.9063 273.258 66.5123Z" fill="white"/>
<path d="M286.706 269.609C286.706 280.857 277.552 290.081 266.21 290.081C254.949 290.081 245.714 280.938 245.714 269.609C245.714 258.362 254.868 249.138 266.21 249.138C277.552 249.138 286.706 258.281 286.706 269.609Z" fill="white"/>
</g>
<defs>
<clipPath id="clip0_85_210">
<rect width="291" height="290" fill="white"/>
</clipPath>
</defs>
</svg>
