<svg width="72" height="81" viewBox="0 0 72 81" fill="none" xmlns="http://www.w3.org/2000/svg">
<path d="M14.3618 32.6337L0.517578 29.3457C0.517578 29.3457 7.35315 16.2802 25.091 16.4533C25.091 16.4533 28.8117 12.7327 38.3296 6.07015C47.8474 -0.592371 57.1057 -0.851949 61.1725 0.9651C65.1527 2.78215 69.6521 8.66593 69.5655 20.7796C69.479 32.8933 67.2293 40.6806 67.2293 40.6806C67.2293 40.6806 76.9203 54.3518 68.0946 67.8498L58.0575 57.7263C58.0575 57.7263 54.8561 65.2541 37.0317 59.7164L16.6115 80.05L23.8797 51.929C23.8797 51.929 13.4965 45.2665 14.3618 32.6337Z" fill="black"/>
<path d="M38.5896 53.6596C36.8591 56.4285 21.9766 70.4457 21.9766 70.4457C21.9766 70.4457 27.0816 50.3716 28.7256 47.6893C30.3696 45.007 33.9172 44.1417 36.5995 45.7857C39.3683 47.4297 40.2336 50.9773 38.5896 53.6596Z" fill="#EF7028"/>
<path d="M37.5511 49.3332C36.7724 50.6311 28.2063 59.7163 28.2063 59.7163C28.2063 59.7163 32.273 47.7757 32.9652 46.5643C33.744 45.2664 35.388 44.9203 36.6859 45.6991C37.9838 46.4778 38.3299 48.1218 37.5511 49.3332Z" fill="white"/>
<path d="M59.8753 3.90693C55.8951 2.34946 50.2709 3.12819 43.4353 7.62756C43.4353 7.62756 57.366 6.58924 65.8456 20.0873C65.8456 20.0873 65.7591 6.15661 59.8753 3.90693Z" fill="white"/>
<path d="M60.654 4.25303C60.3944 4.07998 60.1349 3.99345 59.8753 3.90693C55.8951 2.34946 50.2709 3.12819 43.4353 7.62755C43.4353 7.62755 45.0793 7.54103 47.5886 7.88713C52.6936 4.68566 57.1064 3.73388 60.654 4.25303Z" fill="#F9F8FA"/>
<path d="M20.073 28.134C20.073 28.134 26.649 17.4048 36.1669 11.4345C36.1669 11.4345 47.5883 9.09828 56.8466 16.28C64.1148 21.9907 66.0184 28.9993 66.0184 28.9993C66.0184 28.9993 65.9319 30.9894 65.5858 33.8448C64.9801 38.6902 63.4226 46.1315 59.6155 51.3231C59.6155 51.3231 55.8083 39.8151 43.3485 32.7199C31.4945 25.7978 20.073 28.134 20.073 28.134Z" fill="#EF7028"/>
<path d="M56.9328 16.2804C52.0873 12.4732 46.5496 11.3484 42.4829 11.0888C39.2814 13.7711 33.4842 19.2223 27.7734 27.7884C32.0997 28.1345 37.6374 29.2593 43.4347 32.6338C49.578 36.1814 53.6448 40.7673 56.154 44.4879C61.1725 34.7105 62.8165 27.5288 63.4222 23.3755C61.9513 21.2124 59.8746 18.7031 56.9328 16.2804Z" fill="#EF7028"/>
<path d="M42.4832 11.0885C38.8491 10.9154 36.2533 11.4346 36.2533 11.4346C26.7354 17.4049 20.1594 28.1341 20.1594 28.1341C20.1594 28.1341 23.2744 27.5285 27.8603 27.8746C33.3979 19.2219 39.2817 13.7708 42.4832 11.0885Z" fill="#EF7028"/>
<path d="M57.68 28.5969C59.9021 24.7482 57.9125 19.4395 53.2361 16.7395C48.5598 14.0396 42.9675 14.9708 40.7454 18.8195C38.5233 22.6681 40.5129 27.9769 45.1892 30.6768C49.8656 33.3768 55.4579 32.4456 57.68 28.5969Z" fill="black"/>
<path d="M49.4921 22.3366C52.2609 23.9806 54.3376 26.0572 55.2028 28.0473C55.2028 27.9608 55.2894 27.9608 55.2894 27.8743C56.6738 25.4515 54.9433 21.8174 51.4822 19.8273C48.1077 17.9238 44.3871 18.0968 42.8296 20.1734C44.7332 20.26 47.1559 21.0387 49.4921 22.3366Z" fill="white"/>
<path d="M41.8776 36.0949C31.4945 30.1246 20.7652 29.5189 18.1694 34.1048C16.2659 37.4793 19.0347 42.9304 24.7454 48.0355C25.5242 46.478 26.5625 45.3532 27.3412 44.5744C24.4859 41.8921 23.0149 39.3829 23.8802 37.9119C25.2646 35.5757 32.1002 36.9601 39.2818 41.1134C46.4635 45.2666 51.1359 50.4582 49.7515 52.8809C48.8863 54.3519 45.8578 54.3519 41.9642 53.1405C41.2719 54.9576 40.3202 56.1689 39.6279 56.9477C47.2423 59.63 53.8182 59.4569 55.8084 55.9959C58.4907 51.2369 52.2608 42.0652 41.8776 36.0949Z" fill="white"/>
<path d="M39.3682 40.5073C32.1866 36.3541 25.1779 35.4888 23.7935 37.825C22.9283 39.296 24.3992 41.7187 27.3411 44.4875C27.5141 44.3145 27.7737 44.1414 27.9468 43.9684C27.0815 42.6705 26.8219 41.5457 27.3411 40.6804C28.4659 38.6903 33.4844 39.469 38.4164 42.3244C43.435 45.1798 46.5499 49.16 45.4251 51.1501C44.9059 52.0153 43.7811 52.3614 42.2236 52.1884C42.1371 52.448 42.0505 52.621 41.964 52.8806C45.9442 54.1785 48.8861 54.1785 49.7514 52.7075C51.0493 50.4579 46.5499 44.5741 39.3682 40.5073Z" fill="#EF7028"/>
</svg>
