<svg width="409" height="255" viewBox="0 0 409 255" fill="none" xmlns="http://www.w3.org/2000/svg">
<g clip-path="url(#clip0_49_125)">
<path d="M109.9 250L22.1 214.3L109.9 193.9L208.6 221.9V228.4L109.9 250Z" fill="white" stroke="black" stroke-width="2.3238" stroke-miterlimit="10" stroke-linecap="round" stroke-linejoin="round"/>
<path d="M158.5 185.5C158.5 185.5 149.1 186.3 134.5 182.6C126.5 180.6 125.7 179.6 119.2 178.1C115.6 177.3 109 175.8 102.7 175.9C97.6 176 88.1 177.2 88.4 179.2C88.7 181.2 95.6 179.7 101.7 180.1C107.6 180.5 110.6 181.1 110.6 181.1C110.6 181.1 103.1 180.9 98.1 181.4C92 182 81.8 183.7 81.9 186.5C82 189.3 91.3 186 98.1 185.8C99.7 185.8 111.1 185.8 111.1 185.8C111.1 185.8 104.7 185.8 99.1 187.8C90.9 190.6 82.5 195.8 83.2 197C84.4 199 113.3 189.6 113.3 189.6C113.3 189.6 87.5 197.7 88.4 201.1C89.3 204.5 98.9 198.1 105.5 196.8C111.5 195.7 115.8 195.2 117.4 196.6C119 198 117.2 199.4 112.9 201.6C108.6 203.7 100.8 201.1 100.7 205.4C100.6 209.8 112.2 209 117.7 207.7C124 206.1 129.9 204.3 132.7 204C137.8 203.4 157.6 200.3 158.5 201.7C159.4 203 158.5 185.5 158.5 185.5Z" fill="white" stroke="black" stroke-width="2" stroke-miterlimit="10" stroke-linecap="round" stroke-linejoin="round"/>
<path d="M282.9 95C295 103.3 295.8 128.8 295.8 128.8C295.8 128.8 329.6 121.7 319.3 111.3C309 100.9 316.1 74.2 316.1 74.2" stroke="black" stroke-width="2" stroke-miterlimit="10" stroke-linecap="round" stroke-linejoin="round"/>
<path d="M256.4 21.2C256.4 21.2 250.8 30.9999 249.1 40.0999C247.4 49.1999 247.6 48.5999 247 52.0999C246.3 55.5999 236.6 59.1 235.8 62.9C235 66.7 245.2 76.2999 248.5 75.1999C248.5 77.4999 246.3 81.9999 252.2 83.0999C254.4 83.4999 259.3 79.6999 259.7 80.6999C260.4 82.4999 255.6 89.6999 256.5 91.5999C259.3 97.5999 268.7 99.4 276.1 95.7C283.6 91.7 289.1 90.3 293.9 90.8" stroke="black" stroke-width="2" stroke-miterlimit="10" stroke-linecap="round" stroke-linejoin="round"/>
<path d="M256.148 49.5816C256.44 47.2248 255.788 45.2041 254.692 45.0683C253.595 44.9324 252.47 46.7328 252.178 49.0896C251.886 51.4464 252.538 53.4671 253.634 53.6029C254.73 53.7388 255.855 51.9384 256.148 49.5816Z" fill="black"/>
<path d="M253.9 38.8C253.9 38.8 258.5 39.0001 260.7 44.9001" stroke="black" stroke-width="3" stroke-miterlimit="10" stroke-linecap="round" stroke-linejoin="round"/>
<path d="M408.4 204.1C408.4 211.5 386.4 217.9 354.5 221C342 222.2 328 222.9 313.2 222.9C298.9 222.9 285.4 222.3 273.3 221.2C272.2 221.1 271.2 221 270.2 220.9C247.9 218.7 230.7 214.8 222.8 210.1C219.7 208.3 218.1 206.3 218.1 204.3C218.1 197.9 234.4 192.3 259.2 188.9C265.7 188 272.8 187.3 280.3 186.7C287.2 186.2 294.4 185.9 301.9 185.7C305.6 185.6 309.4 185.6 313.3 185.6C326.9 185.6 339.7 186.2 351.4 187.2C384.9 189.8 408.4 196.4 408.4 204.1Z" fill="black"/>
<path d="M310.6 145.8C310.6 145.8 250.6 174.5 227.9 180.9C205.2 187.3 150.4 184.7 150.4 184.7C150.4 184.7 154.3 195.8 153.4 202.7C158.7 202.7 203.3 215 235.9 207.8C268.5 200.6 296.7 190.8 325.4 177.6C335.2 173 325.8 144.7 310.6 145.8Z" fill="#EF7028" stroke="black" stroke-width="2" stroke-miterlimit="10" stroke-linecap="round" stroke-linejoin="round"/>
<path d="M312.8 221.8C298.5 221.8 285 221.2 272.9 220.1C273.1 218.9 273.3 217.6 273.5 216.5C276.1 202 278.1 192.5 279.8 185.6C280.1 184.2 280.5 182.9 280.8 181.7C284.6 166.8 284.8 168.3 284.2 142.5C284.2 141.3 300.3 112.2 313.1 106.4C314 106 314.9 105.6 315.8 105.1C338.2 133.3 346.2 149.8 350.9 186C351.9 194 352.8 203 353.6 213.4C353.8 215.7 353.9 217.9 354.1 220C341.6 221.2 327.6 221.8 312.8 221.8Z" fill="#EF7028" stroke="black" stroke-width="2" stroke-miterlimit="10" stroke-linecap="round" stroke-linejoin="round"/>
<path d="M158 184.1C154.2 195.5 155.3 195.3 151.8 199.5C147.1 205.1 147.3 196.5 148 193.9C148.7 191.3 153.8 178.5 158 184.1Z" fill="white" stroke="black" stroke-width="2" stroke-miterlimit="10" stroke-linecap="round" stroke-linejoin="round"/>
<path d="M186.1 244C174.3 244.3 148 231.9 143.2 225.5C138.5 219.1 138.9 218.3 135.3 201.9C135 200.5 130.9 197.1 126.7 195C122.4 192.9 118.4 191.8 118 190C117.5 188.2 124 189.6 127.2 190.3C132.8 191.6 137.8 194.8 137.7 194C137.6 193 132.5 191.3 126.6 188.3C121.7 185.8 115.9 185.2 115.7 183.5C115.5 181.8 121.5 181.9 127.4 184C133.9 186.3 139.2 189.5 139.2 188.4C134.5 186 132.7 185.1 127.7 182.7C119.4 178.7 115.2 176.9 116.1 174.6C117 172.3 124.1 175.9 130.2 178.6C136.5 181.3 141.2 184.1 140.9 183.6C140.6 183 136.8 180.4 131.5 177.5C127 175 121.2 173.5 121.9 172.3C122.8 170.6 132 172.7 139.7 176.6C144.2 178.9 147.7 180.9 150.5 184.7C155.8 193.6 151.6 214.2 159.4 217.2L197.6 226C197.5 226 197.9 243.7 186.1 244Z" fill="white" stroke="black" stroke-width="2" stroke-miterlimit="10" stroke-linecap="round" stroke-linejoin="round"/>
<path d="M325.5 175.3C328.1 172.7 301.1 224 261.8 247.3C235.2 263.1 176.9 242.8 176.9 242.8C176.9 242.8 175.4 225.4 180.7 223.1C186 220.8 222.8 228.7 249.8 219.8C276.8 210.9 286.7 143.6 304.9 143.6" fill="#EF7028"/>
<path d="M325.5 175.3C328.1 172.7 301.1 224 261.8 247.3C235.2 263.1 176.9 242.8 176.9 242.8C176.9 242.8 175.4 225.4 180.7 223.1C186 220.8 222.8 228.7 249.8 219.8C276.8 210.9 286.7 143.6 304.9 143.6" stroke="black" stroke-width="2" stroke-miterlimit="10" stroke-linecap="round" stroke-linejoin="round"/>
<path d="M295.9 76.5C295.9 76.5 313.8 70.5 308.4 58C304.4 48.6 295.9 53.5 294 58.1C287.1 54.9 281.9 48 278.7 40.7C275.5 33.4 276.3 30.6 267.3 26.2C258.3 21.8 250 17.3 254.8 8.00003C262.2 9.60003 266.2 7.40003 271.8 4.20003C276.1 1.80003 296.8 -1.49997 307.4 3.60003C343.2 5.50003 401.6 110.1 350.6 179.8C349.8 180.9 318.3 95.3 300.7 91.1" fill="white"/>
<path d="M295.9 76.5C295.9 76.5 313.8 70.5 308.4 58C304.4 48.6 295.9 53.5 294 58.1C287.1 54.9 281.9 48 278.7 40.7C275.5 33.4 276.3 30.6 267.3 26.2C258.3 21.8 250 17.3 254.8 8.00003C262.2 9.60003 266.2 7.40003 271.8 4.20003C276.1 1.80003 296.8 -1.49997 307.4 3.60003C343.2 5.50003 401.6 110.1 350.6 179.8C349.8 180.9 318.3 95.3 300.7 91.1" stroke="black" stroke-width="2" stroke-miterlimit="10" stroke-linecap="round" stroke-linejoin="round"/>
<path d="M109.9 250L22.1 214.3L1.2 131.8L88.9 161.6L109.9 250Z" fill="white" stroke="black" stroke-width="2.3238" stroke-miterlimit="10" stroke-linecap="round" stroke-linejoin="round"/>
<path d="M153.4 232.9L114.6 241.9L95.2 159.3L89 161.6L110 250L164.1 238.2C164.1 238.2 161.2 237.1 158.1 235.6C154.9 234 153.4 232.9 153.4 232.9Z" fill="white" stroke="black" stroke-width="2" stroke-miterlimit="10" stroke-linecap="round" stroke-linejoin="round"/>
<path d="M1.2 131.8L7.7 130.2L95.1 159.3L88.9 161.6L1.2 131.8Z" fill="white" stroke="black" stroke-width="2.3238" stroke-miterlimit="10" stroke-linecap="round" stroke-linejoin="round"/>
<path d="M109.9 250L114.5 241.9" stroke="black" stroke-width="2" stroke-miterlimit="10" stroke-linecap="round" stroke-linejoin="round"/>
</g>
<defs>
<clipPath id="clip0_49_125">
<rect width="408.4" height="254.3" fill="white"/>
</clipPath>
</defs>
</svg>
