<svg width="222" height="259" viewBox="0 0 222 259" fill="none" xmlns="http://www.w3.org/2000/svg">
<path d="M142.636 145.535C155.836 111.935 153.236 60.1355 143.036 32.3355C132.836 4.53546 73.8359 31.7355 76.7359 35.1355C79.5359 38.5355 55.7359 107.735 73.5359 144.335C91.3359 180.935 129.336 179.235 142.636 145.535Z" fill="white" stroke="black" stroke-width="2" stroke-miterlimit="10" stroke-linecap="round" stroke-linejoin="round"/>
<path d="M92.5358 122.535C92.5358 122.535 108.436 113.135 127.136 124.835C124.836 155.435 119.736 186.635 119.736 186.635L91.6358 185.535C91.6358 185.535 81.7358 155.235 82.8358 155.235C83.9358 155.235 92.5358 122.535 92.5358 122.535Z" fill="black"/>
<path d="M200.836 238.735C200.836 246.135 178.836 252.535 146.936 255.635C136.736 256.635 125.536 257.235 113.736 257.435C111.036 257.535 108.336 257.535 105.636 257.535C97.0359 257.535 88.7359 257.335 80.9359 256.935C75.6359 256.635 70.6359 256.335 65.7359 255.835C64.7359 255.735 63.6359 255.635 62.6359 255.535C40.3359 253.335 23.0359 249.435 15.1359 244.635C12.0359 242.835 10.4359 240.835 10.4359 238.835C10.4359 232.435 26.7359 226.835 51.5359 223.435C58.0359 222.535 65.1359 221.835 72.6359 221.235C73.1359 221.235 73.6359 221.135 74.1359 221.135C80.5359 220.735 87.2359 220.435 94.1359 220.235C97.2359 220.135 100.336 220.135 103.536 220.135C104.236 220.135 104.936 220.135 105.536 220.135C119.136 220.135 131.936 220.635 143.636 221.735C177.336 224.435 200.836 231.035 200.836 238.735Z" fill="black"/>
<path d="M98.1359 101.535C98.1359 101.535 94.8359 137.435 101.936 154.035C104.036 159.035 104.036 193.235 106.236 193.135C110.236 192.935 120.136 188.535 122.436 169.935C123.036 165.235 119.136 131.035 119.136 129.235C119.536 116.235 126.936 97.4354 126.936 97.4354L98.1359 101.535Z" fill="white" stroke="black" stroke-width="2" stroke-miterlimit="10" stroke-linecap="round" stroke-linejoin="round"/>
<path d="M82.4359 45.2354C84.0359 55.2354 73.6359 73.1353 81.8359 87.6353C85.2359 93.6353 97.9359 106.235 104.836 106.635C111.736 107.035 135.236 95.0354 139.436 87.0354C143.536 79.0354 140.836 60.6353 143.436 50.1353" fill="white"/>
<path d="M82.4359 45.2354C84.0359 55.2354 73.6359 73.1353 81.8359 87.6353C85.2359 93.6353 97.9359 106.235 104.836 106.635C111.736 107.035 135.236 95.0354 139.436 87.0354C143.536 79.0354 140.836 60.6353 143.436 50.1353" stroke="black" stroke-width="2" stroke-miterlimit="10" stroke-linecap="round" stroke-linejoin="round"/>
<path d="M82.4359 48.4354C82.4359 48.4354 88.5359 46.9354 95.3359 49.1354C103.136 51.6354 106.536 60.9354 99.5359 73.4354C95.3359 81.0354 113.936 81.3354 112.036 74.9354" stroke="black" stroke-width="2" stroke-miterlimit="10" stroke-linecap="round" stroke-linejoin="round"/>
<path d="M116.736 48.2353C116.736 48.2353 121.536 44.4353 127.336 48.5353" stroke="black" stroke-width="2" stroke-miterlimit="10" stroke-linecap="round" stroke-linejoin="round"/>
<path d="M141.836 60.9354C141.836 60.9354 144.936 49.8354 147.536 56.4354C150.136 63.0354 145.236 74.5354 142.136 74.5354C139.036 74.5354 140.736 64.0354 141.836 60.9354Z" fill="white" stroke="black" stroke-width="2" stroke-miterlimit="10" stroke-linecap="round" stroke-linejoin="round"/>
<path d="M64.4359 66.2354C65.4359 64.7354 72.3359 40.8354 80.1359 35.8354C87.9359 30.8354 91.5359 30.1354 93.7359 31.6354C95.8359 33.1354 86.8359 40.6354 84.6359 47.5354C82.4359 54.3354 81.6359 55.8354 80.1359 71.5354C78.6359 87.2354 54.6359 85.9354 53.8359 81.7354C53.3359 83.4354 61.7359 70.0354 64.4359 66.2354Z" fill="white" stroke="black" stroke-width="2" stroke-miterlimit="10" stroke-linecap="round" stroke-linejoin="round"/>
<path d="M122.836 31.7355C122.836 31.7355 100.736 51.2355 86.2358 48.1355C71.8358 45.0355 66.7358 32.3355 66.7358 32.3355C66.7358 32.3355 74.1358 32.4355 76.0358 30.2355C88.7358 0.835461 108.736 -6.76454 127.436 9.13546C172.036 36.7355 144.136 59.7355 144.136 64.6355C144.136 69.5355 141.336 68.9355 140.936 65.0355C140.536 61.1355 137.336 37.6355 122.836 31.7355Z" fill="white" stroke="black" stroke-width="2" stroke-miterlimit="10" stroke-linecap="round" stroke-linejoin="round"/>
<path d="M156.736 73.2353C155.836 71.7353 150.636 47.3353 143.236 41.7353C135.836 36.1353 132.236 35.2353 130.036 36.6353C127.836 38.0353 136.236 46.1353 137.936 53.1353C139.636 60.1353 140.336 61.6353 140.636 77.4353C140.936 93.2353 165.036 93.7353 166.136 89.5353C166.636 91.2353 159.136 77.2353 156.736 73.2353Z" fill="white" stroke="black" stroke-width="2" stroke-miterlimit="10" stroke-linecap="round" stroke-linejoin="round"/>
<path d="M217.836 148.035C203.236 163.635 166.936 173.635 161.036 176.135C155.136 178.635 156.436 180.035 157.236 181.735C160.736 189.035 160.436 201.235 152.536 209.035C145.136 221.235 149.936 252.435 149.936 252.435C126.136 257.435 78.8358 259.635 68.0358 252.735C65.8358 243.935 70.5358 223.335 63.7358 211.635C54.5358 198.135 55.2358 189.535 59.3358 180.835C61.5358 176.235 56.8358 175.135 53.9358 174.135C41.0358 169.435 17.8358 160.835 3.93584 145.935C-13.0642 127.735 49.0358 76.3354 55.4358 70.6354C63.7358 71.3354 70.8358 83.8354 70.8358 83.8354C70.8358 83.8354 37.4358 123.535 34.8358 128.335C33.2358 131.135 50.7358 136.135 66.0358 136.535C76.2358 136.835 85.9358 133.235 86.4358 132.235C88.8358 128.035 89.5358 125.735 92.4358 122.635C98.9358 128.335 99.8358 130.535 100.636 135.635C101.536 140.735 102.936 180.435 109.436 180.435C115.936 180.435 118.536 138.235 120.236 133.635C121.936 129.135 126.136 124.135 127.036 124.835C129.136 126.535 134.236 130.635 136.136 133.335C138.536 134.135 143.536 137.235 155.436 137.335C167.936 139.535 187.836 134.535 186.436 132.135C183.836 127.335 150.136 93.9354 150.136 93.9354C150.136 93.9354 158.136 81.0354 164.936 77.9354C171.236 83.6354 234.836 129.835 217.836 148.035Z" fill="#EF7028" stroke="black" stroke-width="2" stroke-miterlimit="10" stroke-linecap="round" stroke-linejoin="round"/>
<path d="M115.536 94.1354C114.636 96.3354 110.636 93.7354 105.536 93.3354C100.436 92.9354 95.9359 94.3354 96.8359 92.2354C97.7359 90.0354 100.836 87.9354 107.536 87.6354C114.236 87.3354 116.436 92.0354 115.536 94.1354Z" stroke="black" stroke-width="2" stroke-miterlimit="10" stroke-linecap="round" stroke-linejoin="round"/>
<path d="M117.936 58.3354L125.936 58.4355" stroke="black" stroke-width="2" stroke-miterlimit="10" stroke-linecap="round" stroke-linejoin="round"/>
<path d="M88.3358 57.3354L94.5358 57.9355" stroke="black" stroke-width="2" stroke-miterlimit="10" stroke-linecap="round" stroke-linejoin="round"/>
<path d="M154.036 98.1354C154.036 98.1354 159.736 88.7354 168.536 82.2354" stroke="black" stroke-width="2" stroke-miterlimit="10" stroke-linecap="round" stroke-linejoin="round"/>
<path d="M52.2358 74.3354C52.2358 74.3354 61.6358 78.8354 66.9358 86.8354" stroke="black" stroke-width="2" stroke-miterlimit="10" stroke-linecap="round" stroke-linejoin="round"/>
<path d="M126.536 23.8354C126.536 23.8354 127.436 27.2354 119.736 34.3354" stroke="black" stroke-width="2" stroke-miterlimit="10" stroke-linecap="round" stroke-linejoin="round"/>
<path d="M99.3358 207.835C103.036 206.235 107.436 203.435 108.936 199.035C110.336 203.735 114.636 207.235 119.136 209.335" fill="#EF7028"/>
<path d="M99.3358 207.835C103.036 206.235 107.436 203.435 108.936 199.035C110.336 203.735 114.636 207.235 119.136 209.335" stroke="black" stroke-width="2" stroke-miterlimit="10" stroke-linecap="round" stroke-linejoin="round"/>
<path d="M68.4359 168.735C68.4359 168.735 63.3359 172.735 60.5359 178.935" stroke="black" stroke-width="2" stroke-miterlimit="10" stroke-linecap="round" stroke-linejoin="round"/>
<path d="M152.036 173.535C152.036 173.535 155.436 175.235 158.236 183.435" stroke="black" stroke-width="2" stroke-miterlimit="10" stroke-linecap="round" stroke-linejoin="round"/>
<path d="M61.7358 207.535C64.5358 211.835 72.2358 214.735 75.9358 213.835L61.7358 207.535Z" fill="#EF7028"/>
<path d="M61.7358 207.535C64.5358 211.835 72.2358 214.735 75.9358 213.835" stroke="black" stroke-width="2" stroke-miterlimit="10" stroke-linecap="round" stroke-linejoin="round"/>
<path d="M141.436 209.835C141.436 209.835 149.036 212.835 155.036 205.635L141.436 209.835Z" fill="#EF7028"/>
<path d="M141.436 209.835C141.436 209.835 149.036 212.835 155.036 205.635" stroke="black" stroke-width="2" stroke-miterlimit="10" stroke-linecap="round" stroke-linejoin="round"/>
</svg>
