<svg width="193" height="267" viewBox="0 0 193 267" fill="none" xmlns="http://www.w3.org/2000/svg">
<path d="M24.9105 198.044C24.9105 198.044 53.2105 186.744 61.2105 178.044C69.2105 169.344 56.3105 143.644 53.6105 146.344C51.0105 148.944 5.61046 171.944 3.21046 180.344C0.810462 188.744 12.1105 200.244 24.9105 198.044Z" fill="#EF7028" stroke="black" stroke-width="2" stroke-miterlimit="10" stroke-linecap="round" stroke-linejoin="round"/>
<path d="M192.31 228.544C192.31 235.944 170.31 242.344 138.41 245.444C128.21 246.444 117.01 247.044 105.21 247.244C102.51 247.344 99.8105 247.344 97.1105 247.344C88.5105 247.344 80.2105 247.144 72.4105 246.744C67.1105 246.444 62.1105 246.144 57.2105 245.644C56.2105 245.544 55.1105 245.444 54.1105 245.344C31.8105 243.144 14.5105 239.244 6.61046 234.444C3.51046 232.644 1.91046 230.644 1.91046 228.644C1.91046 222.244 18.2105 216.644 43.0105 213.244C49.5105 212.344 56.6105 211.644 64.1105 211.044C64.6105 211.044 65.1105 210.944 65.6105 210.944C72.0105 210.544 78.7105 210.244 85.6105 210.044C88.7105 209.944 91.8105 209.944 95.0105 209.944C95.7105 209.944 96.4105 209.944 97.0105 209.944C110.61 209.944 123.41 210.444 135.11 211.544C168.81 214.344 192.31 220.944 192.31 228.544Z" fill="black"/>
<path d="M89.5105 91.3444C89.5105 91.3444 87.9105 103.144 95.0105 119.744C102.11 136.344 110.01 131.944 110.41 118.944C110.81 105.944 118.31 88.5444 118.31 88.5444L89.5105 91.3444Z" fill="white" stroke="black" stroke-width="2" stroke-miterlimit="10" stroke-linecap="round" stroke-linejoin="round"/>
<path d="M147.71 195.044C138.51 210.044 136.71 233.844 134.41 239.544C132.11 245.244 70.1105 248.644 55.0104 241.044C50.6104 223.144 46.5105 186.144 45.2105 179.144C40.5105 154.744 79.7104 126.444 83.5104 120.044C85.9104 115.844 86.3105 105.244 89.8105 108.044C93.4104 110.844 116.21 102.944 118.11 108.044C120.11 113.144 120.01 115.044 119.61 118.244C119.21 121.344 154.71 130.644 163.41 140.844C159.71 150.644 157.01 180.044 147.71 195.044Z" fill="#EF7028" stroke="black" stroke-width="2" stroke-miterlimit="10" stroke-linecap="round" stroke-linejoin="round"/>
<path d="M86.3104 28.8445C84.3104 38.8445 68.3104 51.9445 71.0104 68.3445C72.1104 75.1445 79.6104 91.4445 85.9104 94.1445C92.2104 96.8445 118.51 93.8445 125.11 87.8445C131.71 81.8445 135.61 63.6445 141.61 54.6445" fill="white"/>
<path d="M86.3104 28.8445C84.3104 38.8445 68.3104 51.9445 71.0104 68.3445C72.1104 75.1445 79.6104 91.4445 85.9104 94.1445C92.2104 96.8445 118.51 93.8445 125.11 87.8445C131.71 81.8445 135.61 63.6445 141.61 54.6445" stroke="black" stroke-width="2" stroke-miterlimit="10" stroke-linecap="round" stroke-linejoin="round"/>
<path d="M92.1104 45.8444C91.2104 48.1444 90.9104 46.0444 89.8104 45.6444C88.7104 45.2444 87.3104 46.6444 88.1104 44.3444C89.0104 42.0444 90.5104 40.5444 91.6104 40.9444C92.7104 41.3444 93.0104 43.5444 92.1104 45.8444Z" fill="black"/>
<path d="M117.51 55.1444C116.61 57.4444 115.81 55.5444 114.71 55.1444C113.61 54.7444 112.71 56.0444 113.51 53.7444C114.41 51.4444 115.91 49.9444 117.01 50.3444C118.21 50.6444 118.41 52.8444 117.51 55.1444Z" fill="black"/>
<path d="M85.2104 31.9444C85.2104 31.9444 93.5104 30.9444 97.0104 37.0444C100.51 43.1444 89.4104 54.0444 84.5104 61.2444C79.6104 68.4444 94.7104 75.4444 101.91 74.0444C109.11 72.5444 106.01 67.7444 106.01 67.7444" stroke="black" stroke-width="2" stroke-miterlimit="10" stroke-linecap="round" stroke-linejoin="round"/>
<path d="M117.41 43.6444C117.41 43.6444 123.21 41.7444 127.21 47.5444" stroke="black" stroke-width="2" stroke-miterlimit="10" stroke-linecap="round" stroke-linejoin="round"/>
<path d="M88.4105 79.3444C91.4105 78.9444 97.7105 81.3444 100.51 84.2444" stroke="black" stroke-width="2" stroke-miterlimit="10" stroke-linecap="round" stroke-linejoin="round"/>
<path d="M136.61 64.2444C136.61 64.2444 143.41 54.9444 143.51 61.9444C143.61 68.9444 135.11 78.1444 132.21 77.0444C129.21 76.0444 134.41 66.7444 136.61 64.2444Z" fill="white" stroke="black" stroke-width="2" stroke-miterlimit="10" stroke-linecap="round" stroke-linejoin="round"/>
<path d="M128.91 30.2444C128.91 30.2444 101.41 40.8444 88.9105 32.9444C76.4105 25.0444 76.5105 13.3444 76.5105 13.3444C76.5105 13.3444 83.0105 14.1444 85.5105 12.7444C107.61 -10.3556 140.91 6.54443 143.61 13.5444C146.11 10.5444 142.51 1.84443 142.51 1.84443C142.51 1.84443 150.11 8.74443 147.41 15.6444C150.61 17.4444 154.61 19.4444 155.11 22.4444C154.01 22.2444 150.11 20.1444 149.01 23.0444C147.91 25.9444 153.41 25.2444 152.61 42.5444C151.81 59.3444 139.21 64.1444 137.51 68.6444C135.81 73.2444 133.41 71.7444 134.41 67.9444C135.21 63.9444 140.41 40.8444 128.91 30.2444Z" fill="white" stroke="black" stroke-width="2" stroke-miterlimit="10" stroke-linecap="round" stroke-linejoin="round"/>
<path d="M70.0104 228.344C77.6104 237.744 77.2105 235.544 78.8105 240.844C81.0105 247.844 74.6105 244.244 72.8105 242.144C71.0105 240.044 63.0104 228.744 70.0104 228.344Z" fill="white" stroke="black" stroke-width="2" stroke-miterlimit="10" stroke-linecap="round" stroke-linejoin="round"/>
<path d="M145.21 260.544C145.21 260.544 112.01 264.744 104.01 265.144C96.0105 265.644 88.4104 262.944 72.6105 257.044C69.9104 256.044 56.6105 267.144 53.2105 265.144C59.0105 261.444 68.4104 251.344 67.2104 250.844C65.5104 250.044 49.8105 265.244 46.5105 263.544C43.3105 261.944 67.0104 247.844 64.7104 245.444C58.3104 251.344 34.9105 264.144 38.3105 257.644C38.8105 256.644 62.6105 242.944 61.4105 242.844C60.2105 242.744 38.6105 253.044 38.7105 251.844C38.9105 249.444 56.4104 239.844 66.2104 235.044C76.5104 235.444 86.6105 246.444 99.7104 246.244C112.71 246.044 140.81 239.544 140.81 239.544L145.21 260.544Z" fill="white" stroke="black" stroke-width="2" stroke-miterlimit="10" stroke-linecap="round" stroke-linejoin="round"/>
<path d="M111.71 245.544L115.91 264.444C115.91 264.444 172.61 265.544 185.81 232.744C194.51 196.844 166.51 140.844 163.41 140.844C160.31 140.844 147.21 158.344 148.41 185.344C149.31 204.644 156.31 204.344 154.81 221.044C153.31 237.644 111.71 245.544 111.71 245.544Z" fill="#EF7028" stroke="black" stroke-width="2" stroke-miterlimit="10" stroke-linecap="round" stroke-linejoin="round"/>
<path d="M89.5104 96.3445C91.5104 94.7445 96.3104 91.9445 99.8104 94.0445C103.21 96.0445 102.11 100.944 100.51 102.144C98.5104 103.544 97.7104 99.4445 96.2104 98.8445C94.5104 101.444 90.5104 103.544 90.5104 103.544C90.5104 103.544 88.8104 116.744 73.2104 125.544C64.4104 130.044 52.8104 172.044 23.0104 189.044C15.6104 196.444 16.8104 195.544 14.2104 195.244C11.6104 194.944 1.21044 191.844 6.01044 179.044C10.8104 166.244 40.0104 140.444 53.0104 122.544C66.0104 104.644 67.5104 103.644 70.0104 92.3445C70.0104 92.3445 71.5104 80.5445 76.4104 76.7445C81.3104 72.9445 84.6104 67.9445 84.6104 72.4445C84.6104 76.9445 80.3104 77.4445 78.2104 81.9445C75.7104 87.1445 76.3104 92.0445 76.3104 92.0445C76.3104 92.0445 77.7104 88.0445 81.9104 84.4445C84.8104 82.0445 92.2104 81.6445 91.3104 87.2445" fill="white"/>
<path d="M89.5104 96.3445C91.5104 94.7445 96.3104 91.9445 99.8104 94.0445C103.21 96.0445 102.11 100.944 100.51 102.144C98.5104 103.544 97.7104 99.4445 96.2104 98.8445C94.5104 101.444 90.5104 103.544 90.5104 103.544C90.5104 103.544 88.8104 116.744 73.2104 125.544C64.4104 130.044 52.8104 172.044 23.0104 189.044C15.6104 196.444 16.8104 195.544 14.2104 195.244C11.6104 194.944 1.21044 191.844 6.01044 179.044C10.8104 166.244 40.0104 140.444 53.0104 122.544C66.0104 104.644 67.5104 103.644 70.0104 92.3445C70.0104 92.3445 71.5104 80.5445 76.4104 76.7445C81.3104 72.9445 84.6104 67.9445 84.6104 72.4445C84.6104 76.9445 80.3104 77.4445 78.2104 81.9445C75.7104 87.1445 76.3104 92.0445 76.3104 92.0445C76.3104 92.0445 77.7104 88.0445 81.9104 84.4445C84.8104 82.0445 92.2104 81.6445 91.3104 87.2445" stroke="black" stroke-width="2" stroke-miterlimit="10" stroke-linecap="round" stroke-linejoin="round"/>
<path d="M83.4105 92.9444C83.4105 92.9444 84.8105 90.1444 88.4105 88.1444C91.9105 86.1444 97.8105 86.8444 96.1105 91.8444" fill="white"/>
<path d="M83.4105 92.9444C83.4105 92.9444 84.8105 90.1444 88.4105 88.1444C91.9105 86.1444 97.8105 86.8444 96.1105 91.8444" stroke="black" stroke-width="2" stroke-miterlimit="10" stroke-linecap="round" stroke-linejoin="round"/>
<path d="M47.6105 125.444C47.6105 125.444 57.1105 128.444 64.2105 139.844C48.7105 168.544 23.4105 193.644 17.0105 195.744C10.6105 197.844 3.01045 188.944 1.11045 182.944C-0.789546 176.944 22.1105 147.144 47.6105 125.444Z" fill="#EF7028" stroke="black" stroke-width="2" stroke-miterlimit="10" stroke-linecap="round" stroke-linejoin="round"/>
<path d="M118.71 119.244C118.71 119.244 101.91 124.544 83.6105 120.944" stroke="black" stroke-width="2" stroke-miterlimit="10" stroke-linecap="round" stroke-linejoin="round"/>
<path d="M112.81 106.944L114.51 120.144" stroke="black" stroke-width="2" stroke-miterlimit="10" stroke-linecap="round" stroke-linejoin="round"/>
<path d="M105.61 107.644L106.91 120.544" stroke="black" stroke-width="2" stroke-miterlimit="10" stroke-linecap="round" stroke-linejoin="round"/>
<path d="M99.8104 108.444L101.11 121.444" stroke="black" stroke-width="2" stroke-miterlimit="10" stroke-linecap="round" stroke-linejoin="round"/>
<path d="M93.7104 109.244L94.1105 120.944" stroke="black" stroke-width="2" stroke-miterlimit="10" stroke-linecap="round" stroke-linejoin="round"/>
<path d="M88.8105 110.144L88.4105 120.944" stroke="black" stroke-width="2" stroke-miterlimit="10" stroke-linecap="round" stroke-linejoin="round"/>
<path d="M134.21 25.4445C134.21 25.4445 132.11 29.5445 125.11 31.5445" stroke="black" stroke-width="2" stroke-miterlimit="10" stroke-linecap="round" stroke-linejoin="round"/>
<path d="M43.3105 129.644C43.3105 129.644 56.3105 137.744 60.7105 145.944" stroke="black" stroke-width="2" stroke-miterlimit="10" stroke-linecap="round" stroke-linejoin="round"/>
<path d="M119.01 244.344C119.01 244.344 120.91 256.044 123.51 263.444" stroke="black" stroke-width="2" stroke-miterlimit="10" stroke-linecap="round" stroke-linejoin="round"/>
</svg>
