<svg width="278" height="315" viewBox="0 0 278 315" fill="none" xmlns="http://www.w3.org/2000/svg">
<path d="M43.6128 164.082C45.0128 164.382 37.6128 157.382 35.1128 151.882C33.0128 147.382 29.0128 156.182 32.4128 162.282C35.9128 168.382 38.5128 166.682 39.5128 166.882C40.4128 166.882 43.6128 164.082 43.6128 164.082Z" fill="white" stroke="black" stroke-width="2" stroke-miterlimit="10" stroke-linecap="round" stroke-linejoin="round"/>
<path d="M34.3129 177.582C32.9129 176.482 9.51285 167.882 5.01285 159.782C4.11285 158.182 3.41285 156.882 2.91285 155.582C2.61285 154.882 2.31285 154.182 2.11285 153.582C0.612848 149.582 0.712848 147.382 1.91285 145.982C3.61285 143.982 10.4128 153.482 17.1128 156.182C23.8128 158.882 25.2128 159.782 40.7128 162.382C56.2128 164.982 53.3128 188.882 49.0128 189.382C50.7128 189.882 37.9128 180.482 34.3129 177.582Z" fill="white" stroke="black" stroke-width="2" stroke-miterlimit="10" stroke-linecap="round" stroke-linejoin="round"/>
<path d="M146.113 174.382C166.513 169.282 189.213 173.282 189.213 173.282C185.313 173.782 135.413 234.182 109.313 243.382C83.2128 252.582 43.1128 193.482 37.9128 186.682C39.2128 178.382 52.2128 172.182 52.2128 172.182C52.2128 172.182 89.5128 208.282 94.0128 211.282C97.6128 213.682 133.513 177.582 146.113 174.382Z" fill="#EF7028" stroke="black" stroke-width="2" stroke-miterlimit="10" stroke-linecap="round" stroke-linejoin="round"/>
<path d="M41.5128 190.282C41.5128 190.282 46.7128 181.282 55.0128 176.482" stroke="black" stroke-width="2" stroke-miterlimit="10" stroke-linecap="round" stroke-linejoin="round"/>
<path d="M277.313 276.582C277.313 283.982 255.313 290.382 223.413 293.482C213.213 294.482 202.013 295.082 190.213 295.282C187.513 295.382 184.813 295.382 182.113 295.382C173.513 295.382 165.213 295.182 157.413 294.782C152.113 294.482 147.113 294.182 142.213 293.682C141.213 293.582 140.113 293.482 139.113 293.382C116.813 291.182 99.5128 287.282 91.6128 282.482C88.5128 280.682 86.9128 278.682 86.9128 276.682C86.9128 270.282 103.213 264.682 128.013 261.282C134.513 260.382 141.613 259.682 149.113 259.082C149.613 259.082 150.113 258.982 150.613 258.982C157.013 258.582 163.713 258.282 170.613 258.082C173.713 257.982 176.813 257.982 180.013 257.982C180.713 257.982 181.413 257.982 182.013 257.982C195.613 257.982 208.413 258.482 220.113 259.582C253.813 262.282 277.313 268.882 277.313 276.582Z" fill="black"/>
<path d="M174.513 139.282C174.513 139.282 172.913 151.082 180.013 167.682C187.113 184.282 195.013 179.882 195.413 166.882C195.813 153.882 203.313 136.482 203.313 136.482L174.513 139.282Z" fill="white" stroke="black" stroke-width="2" stroke-miterlimit="10" stroke-linecap="round" stroke-linejoin="round"/>
<path d="M169.213 167.282C171.613 163.082 171.313 153.182 174.913 155.982C178.513 158.782 201.313 150.882 203.213 155.982C205.213 161.082 205.113 162.982 204.713 166.182C204.313 169.282 230.813 173.282 249.113 188.982C257.813 199.182 235.113 255.582 232.813 243.082C231.813 244.882 220.813 286.682 219.513 287.582C218.813 288.082 155.213 296.682 140.113 289.082C141.013 267.982 132.513 246.982 130.713 221.282C130.613 214.682 132.613 208.582 135.713 202.882" fill="#EF7028"/>
<path d="M169.213 167.282C171.613 163.082 171.313 153.182 174.913 155.982C178.513 158.782 201.313 150.882 203.213 155.982C205.213 161.082 205.113 162.982 204.713 166.182C204.313 169.282 230.813 173.282 249.113 188.982C257.813 199.182 235.113 255.582 232.813 243.082C231.813 244.882 220.813 286.682 219.513 287.582C218.813 288.082 155.213 296.682 140.113 289.082C141.013 267.982 132.513 246.982 130.713 221.282C130.613 214.682 132.613 208.582 135.713 202.882" stroke="black" stroke-width="2" stroke-miterlimit="10" stroke-linecap="round" stroke-linejoin="round"/>
<path d="M158.913 82.9819C160.513 92.9819 150.113 110.882 158.313 125.382C161.713 131.382 174.413 143.982 181.313 144.382C188.213 144.782 211.713 132.782 215.913 124.782C220.013 116.782 217.313 98.3819 219.913 87.8819" fill="white"/>
<path d="M158.913 82.9819C160.513 92.9819 150.113 110.882 158.313 125.382C161.713 131.382 174.413 143.982 181.313 144.382C188.213 144.782 211.713 132.782 215.913 124.782C220.013 116.782 217.313 98.3819 219.913 87.8819" stroke="black" stroke-width="2" stroke-miterlimit="10" stroke-linecap="round" stroke-linejoin="round"/>
<path d="M168.613 100.982C169.773 100.982 170.713 99.0117 170.713 96.5816C170.713 94.1516 169.773 92.1816 168.613 92.1816C167.453 92.1816 166.513 94.1516 166.513 96.5816C166.513 99.0117 167.453 100.982 168.613 100.982Z" fill="black"/>
<path d="M195.113 101.182C196.273 101.182 197.213 99.2119 197.213 96.7818C197.213 94.3518 196.273 92.3818 195.113 92.3818C193.953 92.3818 193.013 94.3518 193.013 96.7818C193.013 99.2119 193.953 101.182 195.113 101.182Z" fill="black"/>
<path d="M158.913 86.1818C158.913 86.1818 166.413 82.2818 171.813 86.8818C177.213 91.4818 170.613 105.482 168.513 113.882C166.413 122.282 183.013 123.682 189.213 119.882C195.413 115.982 190.913 112.482 190.913 112.482" stroke="black" stroke-width="2" stroke-miterlimit="10" stroke-linecap="round" stroke-linejoin="round"/>
<path d="M193.213 86.0819C193.213 86.0819 198.013 82.2819 203.813 86.3819" stroke="black" stroke-width="2" stroke-miterlimit="10" stroke-linecap="round" stroke-linejoin="round"/>
<path d="M218.313 98.782C218.313 98.782 221.413 87.682 224.013 94.282C226.613 100.782 221.713 112.382 218.613 112.382C215.513 112.382 217.213 101.882 218.313 98.782Z" fill="white" stroke="black" stroke-width="2" stroke-miterlimit="10" stroke-linecap="round" stroke-linejoin="round"/>
<path d="M155.013 276.382C162.613 285.782 162.213 283.582 163.813 288.882C166.013 295.882 159.613 292.282 157.813 290.182C156.013 287.982 148.013 276.782 155.013 276.382Z" fill="white" stroke="black" stroke-width="2" stroke-miterlimit="10" stroke-linecap="round" stroke-linejoin="round"/>
<path d="M230.213 308.482C230.213 308.482 197.013 312.682 189.013 313.082C181.013 313.582 173.413 310.882 157.613 304.982C156.213 304.482 151.813 307.282 147.413 309.882C143.613 312.082 139.813 314.082 138.213 313.182C140.413 311.782 143.113 309.482 145.613 307.082C149.613 303.182 153.513 301.182 152.813 300.882C151.913 300.482 145.213 302.182 140.113 304.282C135.113 306.282 131.813 310.882 130.313 310.182C128.713 309.382 132.313 305.082 137.413 301.182C142.813 297.082 149.213 295.782 149.813 295.182C150.413 294.582 140.413 297.482 134.913 300.482C127.513 304.482 124.513 308.182 123.813 306.682C123.013 305.282 128.113 299.682 133.613 296.382C139.913 292.582 147.413 290.882 146.713 290.782C146.113 290.782 141.313 291.382 135.913 293.782C130.313 296.182 124.613 301.582 124.013 299.782C123.413 297.982 129.113 293.482 135.913 289.582C141.013 286.682 147.313 284.982 151.613 282.882C161.913 283.282 172.013 294.282 185.113 294.082C198.113 293.882 226.213 287.382 226.213 287.382L230.213 308.482Z" fill="white" stroke="black" stroke-width="2" stroke-miterlimit="10" stroke-linecap="round" stroke-linejoin="round"/>
<path d="M196.013 292.582L200.413 313.182C200.413 313.182 257.613 313.582 270.813 280.682C279.513 244.782 252.313 189.582 249.313 189.582C246.313 189.582 223.013 208.782 228.713 233.282C231.813 246.482 241.413 252.282 239.813 268.882C238.313 285.582 196.013 292.582 196.013 292.582Z" fill="#EF7028" stroke="black" stroke-width="2" stroke-miterlimit="10" stroke-linecap="round" stroke-linejoin="round"/>
<path d="M145.613 74.3818C145.713 74.3818 145.713 74.3818 145.813 74.3818C145.713 74.3818 145.713 74.3818 145.613 74.3818Z" fill="white" stroke="black" stroke-width="2" stroke-miterlimit="10" stroke-linecap="round" stroke-linejoin="round"/>
<path d="M188.413 77.6818L208.713 77.3818C207.413 77.4818 206.113 77.4818 204.813 77.4818C202.813 77.5818 200.813 77.5818 198.713 77.5818C197.713 77.5818 196.813 77.5818 195.813 77.5818C194.713 77.5818 193.613 77.5818 192.413 77.5818C191.013 77.6818 189.713 77.6818 188.413 77.6818Z" fill="white" stroke="black" stroke-width="2" stroke-miterlimit="10" stroke-linecap="round" stroke-linejoin="round"/>
<path d="M188.413 77.6818C189.713 77.6818 191.013 77.6818 192.413 77.6818C196.713 77.6818 200.813 77.5818 204.813 77.4818C206.113 77.4818 207.413 77.3818 208.713 77.3818" fill="white"/>
<path d="M188.413 77.6818C189.713 77.6818 191.013 77.6818 192.413 77.6818C196.713 77.6818 200.813 77.5818 204.813 77.4818C206.113 77.4818 207.413 77.3818 208.713 77.3818" stroke="black" stroke-width="2" stroke-miterlimit="10" stroke-linecap="round" stroke-linejoin="round"/>
<path d="M224.013 94.1818C222.313 97.7818 220.613 100.382 220.613 102.482C220.613 105.782 219.313 106.582 218.413 105.582C217.913 105.082 217.613 104.182 217.413 102.882C217.413 102.782 217.413 102.682 217.413 102.582C217.113 100.382 216.213 94.0818 213.813 87.4818C212.513 83.9818 210.913 80.4818 208.713 77.3818C222.013 76.4818 225.413 74.4818 227.113 74.3818C228.613 82.0818 226.113 89.6818 224.013 94.1818Z" fill="white" stroke="black" stroke-width="2" stroke-miterlimit="10" stroke-linecap="round" stroke-linejoin="round"/>
<path d="M186.413 77.3817C208.891 77.3817 227.113 75.6804 227.113 73.5817C227.113 71.4831 208.891 69.7817 186.413 69.7817C163.935 69.7817 145.713 71.4831 145.713 73.5817C145.713 75.6804 163.935 77.3817 186.413 77.3817Z" fill="white" stroke="black" stroke-width="2" stroke-miterlimit="10" stroke-linecap="round" stroke-linejoin="round"/>
<path d="M178.8 136.4C180.346 136.4 181.6 134.52 181.6 132.2C181.6 129.88 180.346 128 178.8 128C177.254 128 176 129.88 176 132.2C176 134.52 177.254 136.4 178.8 136.4Z" stroke="black" stroke-width="2" stroke-miterlimit="10" stroke-linecap="round" stroke-linejoin="round"/>
<path d="M182.013 73.5816C182.013 73.5816 180.513 48.7816 170.713 34.9816C189.713 30.1816 203.913 31.5816 203.913 31.5816C203.913 31.5816 192.413 56.0816 191.713 73.4816C185.913 73.6816 182.013 73.5816 182.013 73.5816Z" fill="#EF7028" stroke="black" stroke-width="2" stroke-miterlimit="10" stroke-linecap="round" stroke-linejoin="round"/>
<path d="M161.36 18.8997C161.36 18.8997 156.862 9.54271 167.156 4.74424C176.751 0.265662 184.547 7.14348 184.547 7.14348C184.547 7.14348 189.844 -0.614058 201.637 1.30533C212.831 3.14475 213.531 11.1422 213.031 14.1812C223.425 14.5011 230.322 26.4973 215.33 33.855C216.929 40.6528 209.933 46.7309 199.738 41.9324C193.942 49.61 177.251 47.7706 173.153 41.6925C169.055 47.1308 153.364 45.2913 157.862 35.6944C147.767 35.4545 143.17 19.8594 161.36 18.8997Z" fill="#EF7028" stroke="black" stroke-width="2" stroke-miterlimit="10" stroke-linecap="round" stroke-linejoin="round"/>
<path d="M206 15C206 15 208.681 13.7126 215 14.0592L206 15Z" fill="#EF7028"/>
<path d="M206 15C206 15 208.681 13.7126 215 14.0592" stroke="black" stroke-width="2" stroke-miterlimit="10" stroke-linecap="round" stroke-linejoin="round"/>
<path d="M210 30C210 30 215.564 31 216 35L210 30Z" fill="#EF7028"/>
<path d="M210 30C210 30 215.564 31 216 35" stroke="black" stroke-width="2" stroke-miterlimit="10" stroke-linecap="round" stroke-linejoin="round"/>
<path d="M199.846 37C199.846 37 200.534 40.9529 199 44L199.846 37Z" fill="#EF7028"/>
<path d="M199.846 37C199.846 37 200.534 40.9529 199 44" stroke="black" stroke-width="2" stroke-miterlimit="10" stroke-linecap="round" stroke-linejoin="round"/>
<path d="M175 36C175 36 170.5 39.4239 175 43V36Z" fill="#EF7028"/>
<path d="M175 36C175 36 170.5 39.4239 175 43" stroke="black" stroke-width="2" stroke-miterlimit="10" stroke-linecap="round" stroke-linejoin="round"/>
<path d="M163 33C163 33 157.226 33.4286 157 39L163 33Z" fill="#EF7028"/>
<path d="M163 33C163 33 157.226 33.4286 157 39" stroke="black" stroke-width="2" stroke-miterlimit="10" stroke-linecap="round" stroke-linejoin="round"/>
<path d="M169.713 167.382C169.713 167.382 180.713 175.082 203.913 166.982" stroke="black" stroke-width="2" stroke-miterlimit="10" stroke-linecap="round" stroke-linejoin="round"/>
<path d="M197.913 154.982C197.913 154.982 200.013 159.482 199.013 167.982" stroke="black" stroke-width="2" stroke-miterlimit="10" stroke-linecap="round" stroke-linejoin="round"/>
<path d="M192.213 155.682C192.213 155.682 194.513 161.582 193.513 169.482" stroke="black" stroke-width="2" stroke-miterlimit="10" stroke-linecap="round" stroke-linejoin="round"/>
<path d="M186.613 156.482C186.613 156.482 188.113 163.682 187.513 170.682" stroke="black" stroke-width="2" stroke-miterlimit="10" stroke-linecap="round" stroke-linejoin="round"/>
<path d="M181.513 156.482C181.513 156.482 182.313 164.182 181.513 170.282" stroke="black" stroke-width="2" stroke-miterlimit="10" stroke-linecap="round" stroke-linejoin="round"/>
<path d="M177.313 156.982C177.313 156.982 175.413 164.582 175.413 168.482" stroke="black" stroke-width="2" stroke-miterlimit="10" stroke-linecap="round" stroke-linejoin="round"/>
<path d="M203.413 291.882L208.113 312.182" stroke="black" stroke-width="2" stroke-miterlimit="10" stroke-linecap="round" stroke-linejoin="round"/>
</svg>
