<svg width="103" height="100" viewBox="0 0 103 100" fill="none" xmlns="http://www.w3.org/2000/svg">
<path d="M5.45 42.5502C3.8 43.4002 2.7 45.3002 1.9 48.7002L0 56.6002L7.1 52.5502C10.15 50.8502 11.65 49.2502 12 47.4502L12.15 46.8002L6 42.2002L5.45 42.5502Z" fill="#EF7028"/>
<path d="M59.85 95.3499C58.9 96.9499 56.95 97.9499 53.5 98.5499L45.5 99.9999L49.9 93.1499C51.8 90.1999 53.45 88.7999 55.25 88.4999L55.9 88.3999L60.15 94.7499L59.85 95.3499Z" fill="#EF7028"/>
<path d="M29.4 54.0999C29.05 55.1999 28.7 56.2499 28.35 57.3499L28.05 58.2999L43.95 74.1999L44.9 73.8999C45.95 73.5499 47.05 73.1999 48.15 72.8499L50.6 71.9999L30.25 51.6499L29.4 54.0999Z" fill="#EF7028"/>
<path d="M101.65 2L101.45 0.85L100.3 0.65C97.6 0.2 94.95 0 92.25 0C89.05 0 85.85 0.3 82.7 0.9L78.75 1.65L82.15 3.85C88.65 8.1 94.2 13.65 98.45 20.15L100.65 23.55L101.4 19.6C102.45 13.75 102.55 7.8 101.65 2Z" fill="#EF7028"/>
<path d="M98.9 26.7998C93.85 16.6498 85.6 8.4498 75.5 3.3498L74.85 3.0498L74.2 3.2998C65.05 6.6498 56.6 12.4998 49 20.6998C41.75 28.6998 35.9 37.8498 31.75 47.8498L31.3 48.8498L53.35 70.8998L54.35 70.4498C64.3 66.2998 73.5 60.4498 81.5 53.1998C89.65 45.6498 95.55 37.1998 98.9 27.9998L99.15 27.3498L98.9 26.7998ZM83.75 30.6998C83.3 34.0498 81.35 36.9998 78.4 38.6498C75.5 40.3498 71.95 40.5498 68.85 39.2498C65.75 37.9498 63.4 35.2998 62.55 32.0498C61.7 28.7998 62.4 25.2998 64.45 22.6498C66.5 19.9998 69.7 18.3998 73.05 18.3998C75.95 18.3998 78.7 19.5498 80.7 21.5998C83.05 23.9998 84.15 27.3498 83.75 30.6998Z" fill="#EF7028"/>
<path d="M21.1 40.2501C26.6 32.9001 25.55 22.8501 25.55 22.8501C25.55 22.8501 15.55 24.6501 10.05 32.0001C8.20002 34.5001 7.05002 37.3001 6.40002 39.9001L14.5 45.9501C16.85 44.6001 19.25 42.7501 21.1 40.2501Z" fill="#EF7028"/>
<path d="M27.4 30.4001C26.85 33.5001 25.7 37.1501 23.4 40.2501C23.05 40.7501 22.65 41.2001 22.25 41.6501L24.85 43.4001L27.15 41.1001C27.4 40.8501 27.75 40.7001 28.15 40.6501H32.8L33.25 39.7501C34.45 37.4001 35.75 35.1001 37.15 32.8001L38.65 30.3501L27.4 30.4001Z" fill="#EF7028"/>
<path d="M63.1 79.9C70.6 74.65 80.65 76 80.65 76C80.65 76 78.5 85.8999 71.05 91.1999C68.5 92.9999 65.7 94 63.05 94.6L57.25 86.3499C58.6 84 60.55 81.65 63.1 79.9Z" fill="#EF7028"/>
<path d="M71.8 74.1C68.7 74.65 65.05 75.8 61.95 78.1C61.45 78.45 61 78.85 60.55 79.25L58.8 76.65L61.1 74.35C61.35 74.1 61.5 73.75 61.55 73.35V69.35L62.45 68.9C64.8 67.7 67.1 66.4 69.4 65L71.85 63.5L71.8 74.1Z" fill="#EF7028"/>
<path d="M21.7 73.8999C19.95 73.2999 18.05 73.1499 16.2 73.4499C15.9 73.4999 15.5 73.3999 15.3 73.1999C15 72.8999 14.9 72.4499 15.1 72.0999C17.05 67.8999 22.2 59.5499 31.5 66.2999C31.6 66.3999 31.65 66.4999 31.65 66.6499C31.65 66.7999 31.6 66.8999 31.5 66.9999C28.95 68.9999 27.55 72.0499 27.65 75.2999C27.65 75.6999 27.95 75.9999 28.35 75.9999C31.55 76.1499 34.65 74.7499 36.65 72.2499C36.75 72.1499 36.85 72.0999 37 72.0999C37.15 72.0999 37.3 72.1499 37.35 72.2499C38.65 73.7999 42.2 78.7999 38.25 83.6999C36.5 85.7499 34.05 87.0999 31.4 87.3499C27.6 87.7499 20.5 88.9999 17.6 92.2999C17.35 92.5999 17 92.6999 16.65 92.5999C16.3 92.4999 16 92.2499 15.9 91.8999C14.9 88.3999 13.35 80.5999 21.7 73.8999Z" fill="#EF7028"/>
</svg>
